<?xml version="1.0" standalone="no"?>
<!DOCTYPE svg PUBLIC "-//W3C//DTD SVG 20010904//EN"
 "http://www.w3.org/TR/2001/REC-SVG-20010904/DTD/svg10.dtd">
<svg version="1.0" xmlns="http://www.w3.org/2000/svg"
 width="512.000000pt" height="512.000000pt" viewBox="0 0 512.000000 512.000000"
 preserveAspectRatio="xMidYMid meet">
<metadata>

</metadata>
<g transform="translate(0.000000,512.000000) scale(0.100000,-0.100000)"
fill="red" stroke="none">
<path d="M3008 4733 c7 -3 16 -2 19 1 4 3 -2 6 -13 5 -11 0 -14 -3 -6 -6z"/>
<path d="M3048 4723 c7 -3 16 -2 19 1 4 3 -2 6 -13 5 -11 0 -14 -3 -6 -6z"/>
<path d="M3088 4713 c7 -3 16 -2 19 1 4 3 -2 6 -13 5 -11 0 -14 -3 -6 -6z"/>
<path d="M3204 4681 c3 -4 27 -16 53 -26 89 -33 317 -152 413 -215 111 -73
248 -181 305 -240 22 -23 54 -51 70 -62 58 -40 -44 59 -153 149 -140 116 -269
200 -431 282 -141 72 -265 126 -257 112z"/>
<path d="M2490 4650 c0 -6 27 -10 60 -10 33 0 60 4 60 10 0 6 -27 10 -60 10
-33 0 -60 -4 -60 -10z"/>
<path d="M2727 4647 c-8 -21 8 -39 29 -35 27 5 25 42 -2 46 -12 2 -24 -3 -27
-11z"/>
<path d="M1842 4628 c-18 -18 -15 -36 9 -49 29 -15 59 12 43 39 -14 22 -36 26
-52 10z m36 -10 c17 -17 15 -28 -7 -28 -22 0 -35 15 -26 30 8 13 18 13 33 -2z"/>
<path d="M2290 4619 c-110 -14 -220 -39 -333 -76 -60 -19 -107 -36 -105 -38 2
-3 51 11 108 30 122 39 237 64 333 72 37 3 67 10 67 14 0 5 -1 8 -2 8 -2 -1
-32 -5 -68 -10z"/>
<path d="M2875 4590 c11 -5 27 -9 35 -9 9 0 8 4 -5 9 -11 5 -27 9 -35 9 -9 0
-8 -4 5 -9z"/>
<path d="M3120 4527 c127 -44 202 -79 323 -149 69 -40 109 -47 46 -8 -126 77
-358 175 -459 194 -19 3 21 -13 90 -37z"/>
<path d="M1538 4497 c-54 -29 -78 -48 -78 -61 0 -17 1 -17 23 -2 40 29 154 85
161 79 9 -10 7 -73 -3 -73 -4 0 -57 -29 -116 -65 -99 -59 -107 -62 -102 -40 2
14 -1 33 -8 42 -11 15 -16 14 -56 -9 -24 -15 -61 -41 -83 -60 l-38 -34 28 -33
28 -34 -25 -19 c-95 -76 -127 -109 -131 -138 -6 -39 17 -41 25 -2 9 45 211
211 365 299 45 27 96 56 113 66 28 16 30 21 27 70 -3 47 -5 52 -28 54 -14 2
-58 -15 -102 -40z m-130 -171 c0 -31 -6 -39 -53 -70 l-54 -36 -20 26 c-12 15
-18 30 -16 34 10 16 127 90 135 85 4 -3 8 -20 8 -39z"/>
<path d="M2498 4533 c34 -2 90 -2 125 0 34 2 6 3 -63 3 -69 0 -97 -1 -62 -3z"/>
<path d="M2158 4510 c-172 -36 -480 -152 -486 -183 -6 -30 18 -26 120 17 163
69 273 102 486 142 14 3 22 12 22 24 0 25 -24 25 -142 0z"/>
<path d="M1211 4440 c-120 -81 -193 -141 -314 -259 -77 -75 -183 -194 -227
-256 -26 -36 11 3 92 100 132 156 291 300 450 406 93 62 116 79 107 79 -3 0
-51 -31 -108 -70z"/>
<path d="M3397 4483 c-4 -3 9 -17 29 -31 23 -16 39 -21 46 -14 6 6 -3 17 -25
31 -38 23 -41 24 -50 14z"/>
<path d="M3047 4474 c-15 -15 -6 -43 15 -50 22 -7 52 19 45 41 -4 12 -50 19
-60 9z"/>
<path d="M2400 4414 c0 -8 5 -12 10 -9 6 3 10 10 10 16 0 5 -4 9 -10 9 -5 0
-10 -7 -10 -16z"/>
<path d="M3100 4418 c0 -10 160 -70 173 -65 15 6 -97 57 -140 64 -18 3 -33 3
-33 1z"/>
<path d="M2780 4401 c8 -5 35 -12 60 -16 146 -24 415 -129 580 -226 56 -33
104 -59 106 -56 8 8 -196 123 -292 165 -128 56 -216 86 -324 111 -138 31 -148
33 -130 22z"/>
<path d="M2165 4375 c-134 -31 -240 -68 -360 -125 -101 -49 -250 -139 -242
-147 3 -2 36 16 73 40 176 114 401 200 627 242 47 8 60 13 37 13 -19 0 -80
-10 -135 -23z"/>
<path d="M3326 4354 c-3 -9 -6 -17 -6 -19 0 -2 35 -22 77 -46 158 -86 273
-170 394 -286 46 -44 79 -50 79 -14 0 36 -278 246 -450 340 -86 46 -86 47 -94
25z"/>
<path d="M2512 4348 c-18 -18 -14 -28 8 -28 11 0 20 6 20 14 0 21 -15 27 -28
14z"/>
<path d="M3637 4353 c-25 -25 14 -88 50 -81 22 4 30 52 12 74 -12 14 -50 19
-62 7z"/>
<path d="M3920 4335 c13 -14 26 -25 28 -25 3 0 -5 11 -18 25 -13 14 -26 25
-28 25 -3 0 5 -11 18 -25z"/>
<path d="M2410 4333 c-84 -8 -232 -36 -311 -58 -255 -72 -594 -258 -763 -420
-43 -41 -85 -75 -92 -75 -18 0 -54 -49 -54 -75 0 -12 -9 -30 -21 -41 -11 -10
-25 -28 -30 -39 -6 -11 3 -5 19 13 l29 33 38 -25 c21 -14 42 -26 48 -26 6 0 1
-10 -11 -23 -32 -33 -27 -42 7 -15 37 29 38 34 4 51 -26 14 -26 15 -5 21 53
17 67 64 30 103 l-21 23 64 60 c186 177 553 371 821 435 87 21 241 45 285 45
7 0 13 5 13 10 0 6 -3 9 -7 8 -5 0 -24 -3 -43 -5z m-1125 -589 c19 -20 16 -43
-7 -58 -35 -22 -74 27 -48 59 16 19 35 19 55 -1z"/>
<path d="M2600 4332 c0 -5 49 -14 109 -21 257 -27 521 -128 763 -290 58 -39
118 -85 134 -103 16 -18 43 -42 61 -53 17 -11 49 -41 72 -66 40 -46 40 -47 21
-64 -26 -23 -25 -39 3 -62 14 -11 21 -26 19 -40 -5 -32 20 -29 60 6 31 27 32
30 17 48 -9 10 -24 33 -33 51 -9 17 -23 32 -31 32 -7 0 -37 25 -66 55 -28 30
-60 57 -70 60 -11 4 -19 12 -19 20 0 18 -62 67 -180 145 -228 149 -472 241
-730 276 -125 16 -130 16 -130 6z m1212 -610 c3 -10 -4 -24 -18 -34 -19 -15
-23 -16 -34 -2 -11 12 -9 19 10 39 25 26 35 26 42 -3z m18 -41 c0 -5 -7 -14
-15 -21 -12 -10 -15 -10 -15 2 0 8 3 18 7 21 9 10 23 9 23 -2z"/>
<path d="M1114 4278 l-19 -23 25 20 c14 11 27 21 29 22 2 2 0 3 -6 3 -5 0 -18
-10 -29 -22z"/>
<path d="M3744 4288 c-4 -6 3 -19 17 -30 13 -11 41 -35 62 -54 32 -28 39 -31
44 -17 5 12 -9 31 -46 65 -55 50 -65 55 -77 36z"/>
<path d="M4111 4160 c138 -137 223 -240 334 -407 47 -72 76 -103 37 -40 -121
191 -309 414 -455 539 -34 29 4 -13 84 -92z"/>
<path d="M2378 4263 c6 -2 18 -2 25 0 6 3 1 5 -13 5 -14 0 -19 -2 -12 -5z"/>
<path d="M2668 4263 c12 -2 30 -2 40 0 9 3 -1 5 -23 4 -22 0 -30 -2 -17 -4z"/>
<path d="M1036 4215 c-28 -25 -48 -46 -45 -48 2 -2 27 18 54 45 63 60 57 62
-9 3z"/>
<path d="M2758 4253 c6 -2 18 -2 25 0 6 3 1 5 -13 5 -14 0 -19 -2 -12 -5z"/>
<path d="M1409 4190 c-105 -75 -196 -156 -187 -165 4 -4 33 15 65 42 32 27 93
76 136 108 65 48 91 75 73 75 -2 0 -41 -27 -87 -60z"/>
<path d="M2818 4243 c6 -2 18 -2 25 0 6 3 1 5 -13 5 -14 0 -19 -2 -12 -5z"/>
<path d="M2868 4233 c7 -3 16 -2 19 1 4 3 -2 6 -13 5 -11 0 -14 -3 -6 -6z"/>
<path d="M2980 4201 c165 -54 297 -116 432 -203 43 -28 81 -49 83 -46 7 7
-118 86 -221 140 -93 49 -329 139 -362 137 -9 0 21 -13 68 -28z"/>
<path d="M1514 4187 c-98 -70 -444 -400 -444 -424 0 -6 7 -19 16 -28 15 -15
13 -20 -25 -73 -124 -173 -246 -396 -305 -560 -27 -77 -77 -302 -75 -343 1
-13 12 29 25 95 13 65 35 157 50 204 39 123 159 357 256 500 46 68 91 139 101
158 23 43 229 248 301 300 30 22 59 48 66 59 6 11 31 33 55 49 53 33 58 40 50
66 -8 26 -32 25 -71 -3z"/>
<path d="M1010 4140 c-29 -29 -24 -59 11 -72 44 -17 81 60 40 82 -26 13 -28
13 -51 -10z"/>
<path d="M2330 4145 c-180 -31 -314 -76 -358 -121 -41 -43 -29 -45 14 -3 25
24 59 39 150 65 183 54 292 67 474 61 170 -6 228 -18 415 -85 283 -101 513
-266 727 -522 44 -52 85 -95 91 -95 20 0 125 -155 180 -266 30 -58 66 -149 82
-202 15 -54 32 -97 36 -97 9 0 -24 122 -53 195 -68 172 -207 373 -400 579 -93
98 -143 141 -239 206 -203 138 -453 247 -649 284 -100 19 -361 20 -470 1z
m1510 -689 c0 -12 -2 -9 -54 59 l-38 50 46 -50 c25 -27 46 -54 46 -59z"/>
<path d="M3988 4113 c12 -17 22 -37 22 -43 0 -7 36 -49 80 -94 44 -45 80 -88
80 -95 0 -10 -11 -12 -42 -8 -37 5 -51 15 -101 68 -31 34 -59 60 -62 57 -2 -2
24 -34 58 -71 52 -56 68 -67 95 -67 20 0 39 -8 49 -20 25 -28 30 -25 25 16 -4
30 -18 49 -75 103 -38 36 -78 84 -88 107 -10 22 -28 49 -41 60 l-22 19 22 -32z"/>
<path d="M3830 4083 c44 -51 62 -63 91 -63 16 0 29 5 29 10 0 6 -10 8 -23 5
-17 -5 -31 4 -62 35 -44 45 -72 55 -35 13z"/>
<path d="M2352 4085 c-89 -12 -132 -31 -132 -59 0 -6 4 -6 9 2 15 24 105 44
224 49 l119 6 -4 -29 -3 -29 -90 -6 c-154 -11 -328 -54 -432 -108 -54 -27 -79
-27 -94 2 -18 34 -61 77 -78 77 -9 0 -35 -11 -58 -24 -24 -14 -45 -20 -48 -15
-13 19 -55 9 -67 -16 -24 -52 44 -76 69 -24 7 14 31 34 53 44 48 22 60 15 96
-57 13 -26 31 -48 40 -48 9 0 46 14 84 30 38 17 71 30 75 30 10 0 36 -70 30
-80 -4 -6 -1 -10 4 -10 15 0 13 40 -4 70 -8 14 -14 28 -15 32 0 15 182 62 283
72 31 3 82 9 112 12 l55 5 0 45 0 44 -67 -1 c-38 -1 -110 -7 -161 -14z m-602
-145 c0 -13 -11 -13 -30 0 -12 8 -11 10 8 10 12 0 22 -4 22 -10z"/>
<path d="M2660 4050 c0 -38 1 -39 38 -45 77 -12 259 -57 300 -76 42 -18 43
-20 37 -51 -4 -18 -13 -48 -21 -65 -7 -18 -9 -33 -4 -33 10 0 40 86 40 116 0
13 -5 26 -11 30 -6 3 -8 17 -5 30 4 15 1 33 -9 47 -8 12 -15 16 -15 10 0 -7 4
-14 9 -17 4 -3 6 -17 3 -31 -3 -20 -9 -24 -21 -19 -35 15 -185 53 -256 65 -63
10 -75 15 -75 31 0 25 35 37 96 32 l49 -3 -40 9 c-22 5 -57 9 -77 9 -38 1 -38
1 -38 -39z"/>
<path d="M1492 4057 c-13 -15 1 -42 17 -33 13 9 15 33 2 40 -5 3 -13 0 -19 -7z"/>
<path d="M2838 4063 c7 -3 16 -2 19 1 4 3 -2 6 -13 5 -11 0 -14 -3 -6 -6z"/>
<path d="M609 4027 c-36 -45 -46 -68 -15 -32 25 29 50 65 44 65 -2 0 -15 -15
-29 -33z"/>
<path d="M1670 4043 c-31 -12 -39 -24 -31 -46 7 -19 16 -22 69 -22 49 0 58 2
49 14 -6 7 -16 23 -22 35 -11 21 -38 29 -65 19z"/>
<path d="M2028 3998 c-38 -17 -68 -35 -68 -40 0 -5 9 -4 19 2 25 13 34 13 26
0 -11 -18 5 -32 21 -19 12 10 12 13 -3 24 -15 11 -11 15 31 34 61 26 91 28 81
4 -5 -14 -3 -15 6 -6 15 15 3 33 -24 32 -12 0 -52 -14 -89 -31z"/>
<path d="M1149 4008 c-1 -2 -2 -20 -3 -40 -2 -26 1 -38 10 -38 16 0 27 17 16
24 -5 3 -7 17 -4 31 2 15 0 25 -7 25 -6 0 -11 -1 -12 -2z"/>
<path d="M966 3868 c-53 -56 -96 -108 -96 -115 0 -6 9 -15 20 -18 25 -8 55 14
138 98 60 61 63 66 57 101 -4 20 -11 36 -15 36 -5 0 -51 -46 -104 -102z"/>
<path d="M1523 3929 c-54 -41 -65 -67 -38 -89 12 -10 24 -5 70 30 30 23 55 47
55 52 0 14 -20 48 -28 48 -4 0 -31 -18 -59 -41z"/>
<path d="M2455 3959 c-44 -3 -68 -6 -54 -7 17 -1 29 -9 32 -22 4 -17 14 -20
66 -20 58 0 61 1 61 24 0 30 -8 32 -105 25z m90 -19 c4 -6 -15 -10 -50 -10
-35 0 -54 4 -50 10 3 6 26 10 50 10 24 0 47 -4 50 -10z"/>
<path d="M3714 3945 c-4 -9 -2 -21 4 -27 16 -16 47 -5 47 17 0 26 -42 34 -51
10z m41 -4 c7 -12 -12 -24 -25 -16 -11 7 -4 25 10 25 5 0 11 -4 15 -9z"/>
<path d="M2323 3943 c9 -2 23 -2 30 0 6 3 -1 5 -18 5 -16 0 -22 -2 -12 -5z"/>
<path d="M2667 3943 c-4 -3 -7 -26 -7 -49 0 -31 5 -46 18 -52 24 -12 172 -35
180 -28 13 14 -21 30 -100 45 -82 16 -83 16 -83 46 0 28 3 30 45 36 l45 6 -46
1 c-25 1 -49 -1 -52 -5z"/>
<path d="M2278 3933 c7 -3 16 -2 19 1 4 3 -2 6 -13 5 -11 0 -14 -3 -6 -6z"/>
<path d="M2788 3933 c6 -2 18 -2 25 0 6 3 1 5 -13 5 -14 0 -19 -2 -12 -5z"/>
<path d="M3506 3915 c-8 -31 -1 -45 21 -45 9 0 25 -7 35 -16 14 -14 20 -14 33
-4 21 18 19 28 -14 61 -37 36 -67 38 -75 4z"/>
<path d="M2205 3920 c-25 -11 1 -11 35 0 20 6 21 8 5 8 -11 0 -29 -3 -40 -8z"/>
<path d="M4480 3885 c17 -25 33 -45 36 -45 3 0 -9 20 -26 45 -17 25 -33 45
-36 45 -3 0 9 -20 26 -45z"/>
<path d="M2913 3902 c27 -10 45 -21 40 -25 -4 -5 1 -5 11 -1 17 7 17 8 -5 19
-13 7 -40 15 -59 19 -29 5 -27 3 13 -12z"/>
<path d="M839 3852 c-63 -78 -139 -187 -139 -200 0 -6 20 -20 45 -31 25 -11
45 -24 45 -29 0 -6 -17 -39 -39 -74 -73 -121 -181 -361 -181 -401 0 -20 19 15
36 68 25 77 109 251 161 334 l46 74 -26 23 c-15 13 -27 28 -27 34 0 6 -10 8
-26 4 l-27 -7 19 32 c10 18 54 77 96 132 43 54 74 99 70 99 -4 0 -28 -26 -53
-58z"/>
<path d="M602 3828 c-55 -83 -70 -108 -55 -93 16 16 114 165 109 165 -3 0 -27
-33 -54 -72z"/>
<path d="M3230 3876 c-25 -32 -7 -59 81 -121 48 -33 121 -89 163 -124 67 -56
75 -67 70 -90 -12 -48 -22 -47 -82 10 -78 76 -165 140 -242 179 -36 18 -73 39
-82 48 -10 8 -18 10 -18 4 0 -5 35 -29 78 -52 42 -23 107 -64 143 -91 97 -72
254 -240 332 -356 67 -98 126 -225 127 -270 0 -29 -35 -61 -83 -74 -55 -15
-76 -4 -98 49 -11 26 -32 74 -47 106 -17 38 -23 61 -16 63 6 2 19 9 28 16 16
11 12 20 -41 95 l-58 82 -8 -33 c-5 -17 -23 -47 -40 -65 -23 -24 -29 -36 -22
-46 112 -157 157 -255 189 -406 20 -96 14 -106 -66 -113 -35 -3 -67 -2 -71 2
-4 4 -16 43 -27 87 -10 43 -34 115 -52 159 -37 86 -105 201 -115 191 -3 -3 5
-23 19 -43 74 -111 118 -221 144 -360 19 -103 13 -214 -17 -342 -20 -81 -72
-216 -90 -235 -14 -15 -11 -52 5 -65 12 -10 17 -8 26 8 8 17 8 19 -4 15 -16
-6 -33 15 -19 25 24 15 98 232 117 344 l7 37 118 0 119 0 5 33 c9 62 0 67
-128 67 l-115 0 0 31 c0 28 3 31 23 24 41 -12 116 -17 161 -11 37 6 46 11 46
27 0 10 9 28 20 39 17 17 33 20 115 20 146 0 152 12 98 199 -13 46 -40 122
-59 169 -19 46 -34 86 -32 87 2 1 18 10 36 19 40 21 40 20 -33 136 -116 184
-295 372 -459 481 -91 60 -124 70 -146 45z m151 -64 c147 -97 328 -293 451
-490 51 -81 53 -89 28 -97 -11 -4 -28 -17 -36 -31 -15 -23 -14 -29 19 -107 37
-87 84 -233 76 -241 -2 -2 -21 -7 -41 -11 -36 -7 -37 -7 -49 37 -7 23 -13 70
-15 104 -2 37 -13 87 -30 129 -17 41 -23 70 -17 72 5 2 19 10 29 17 16 12 16
16 4 31 -13 16 -25 16 -61 1 -12 -5 -25 9 -54 55 -20 33 -60 90 -87 126 -46
60 -49 66 -34 82 9 10 16 24 16 32 1 8 28 -15 62 -51 36 -38 48 -48 30 -24
-57 74 -260 261 -347 319 -47 31 -85 58 -85 60 0 2 3 10 6 19 11 29 59 18 135
-32z m143 -577 c24 -57 14 -186 -11 -149 -5 6 -23 34 -42 63 l-34 52 34 35
c18 19 34 34 36 34 1 0 9 -16 17 -35z"/>
<path d="M1735 3829 c-44 -28 -106 -73 -138 -100 -32 -27 -63 -49 -67 -49 -5
0 -12 -9 -15 -20 -8 -24 -74 -72 -88 -63 -6 4 -8 -2 -5 -15 4 -15 -5 -31 -34
-59 -39 -38 -131 -167 -183 -256 -19 -33 -24 -52 -17 -59 7 -7 12 0 17 21 4
17 11 31 16 31 5 0 9 7 9 14 0 20 131 214 168 249 26 25 32 27 50 16 16 -10
18 -17 11 -31 -12 -23 -10 -27 44 -65 40 -29 46 -31 63 -18 18 14 17 16 -20
48 l-40 34 27 7 c16 4 38 23 53 45 14 21 52 60 85 87 32 26 59 51 59 57 0 11
-3 9 -73 -47 -39 -31 -50 -36 -62 -26 -13 11 -15 8 -15 -18 0 -65 -73 -100
-120 -57 -26 24 -25 32 5 39 13 3 35 20 47 36 12 17 26 30 31 30 5 0 40 26 77
59 89 77 173 125 205 117 27 -7 65 -63 65 -97 0 -18 3 -20 9 -10 17 27 -39
151 -68 151 -9 0 -52 -23 -96 -51z"/>
<path d="M2460 3854 c-107 -9 -175 -26 -200 -49 -14 -12 -52 -30 -85 -40 -33
-9 -76 -25 -97 -36 -20 -10 -54 -19 -75 -19 -43 0 -173 -72 -173 -96 0 -11 11
-8 43 14 67 46 89 56 142 63 55 7 210 61 259 90 37 21 183 42 261 37 47 -3 55
0 55 15 0 9 -6 17 -14 17 -7 0 -26 2 -42 4 -16 2 -49 2 -74 0z"/>
<path d="M1585 3803 c-72 -56 -137 -113 -129 -113 3 0 38 27 78 59 39 33 82
69 96 80 51 41 13 20 -45 -26z"/>
<path d="M3617 3842 c-12 -2 -17 -11 -15 -25 2 -17 11 -23 36 -25 19 -2 41 -1
49 3 14 5 14 8 -1 24 -19 21 -42 29 -69 23z"/>
<path d="M1355 3810 c-9 -16 -13 -30 -11 -30 3 0 12 14 21 30 9 17 13 30 11
30 -3 0 -12 -13 -21 -30z"/>
<path d="M2656 3772 c-9 -17 -16 -51 -16 -76 0 -35 -5 -49 -20 -58 -16 -11
-20 -24 -20 -74 l0 -61 83 -6 c208 -16 383 -103 548 -273 77 -80 148 -181 197
-280 25 -52 42 -63 70 -45 20 12 -4 60 -28 54 -19 -5 -36 22 -20 32 6 4 10 -1
10 -10 0 -9 4 -13 10 -10 14 9 -16 63 -34 61 -8 0 -37 35 -66 79 -28 44 -41
69 -28 55 13 -14 27 -33 31 -42 3 -10 11 -18 17 -18 6 0 8 -5 5 -10 -3 -6 1
-13 9 -16 9 -3 16 -15 16 -25 0 -10 5 -19 10 -19 16 0 12 13 -19 61 -29 45
-91 109 -91 95 0 -11 -29 14 -40 34 -7 13 -2 25 22 48 l30 32 -31 35 c-26 30
-31 44 -31 85 0 27 -5 59 -11 72 -26 57 -242 184 -353 209 -48 10 -62 19 -80
46 -25 38 -26 39 -99 48 -54 7 -56 7 -71 -23z m111 -23 c33 -12 43 -26 43 -57
0 -13 4 -20 10 -17 29 18 233 -65 340 -139 66 -45 90 -74 90 -111 0 -17 7 -55
16 -84 14 -48 14 -55 -1 -77 l-16 -24 -63 52 c-35 29 -78 66 -97 81 -19 16
-26 26 -17 23 22 -7 35 13 17 25 -21 13 -39 11 -39 -5 0 -11 -19 -6 -76 20
-88 40 -193 69 -287 79 l-67 7 0 49 c0 36 5 54 20 69 13 13 20 33 20 58 0 21
5 43 12 50 15 15 58 15 95 1z"/>
<path d="M4176 3764 c-22 -21 -20 -67 2 -87 26 -24 79 -22 92 2 17 32 12 69
-12 85 -29 20 -62 20 -82 0z"/>
<path d="M989 3728 c23 -26 24 -58 1 -58 -13 0 -13 17 0 23 6 3 5 4 -2 3 -18
-4 -23 -36 -5 -36 20 0 39 25 35 46 -2 9 -14 24 -28 32 l-25 16 24 -26z"/>
<path d="M3910 3720 c0 -11 20 -36 46 -57 66 -55 187 -243 252 -392 69 -159
116 -335 108 -408 -3 -39 -1 -53 8 -53 7 0 17 10 23 22 6 14 12 18 17 10 4 -6
-2 -20 -14 -32 -24 -24 -27 -82 -5 -100 12 -10 15 -42 15 -170 0 -228 -38
-432 -118 -628 l-30 -73 25 -10 c16 -6 30 -6 35 -1 18 18 87 239 108 347 29
143 37 367 20 540 -11 115 -15 133 -37 156 -16 18 -29 51 -39 99 -9 41 -29
114 -46 164 -31 94 -112 276 -127 286 -4 3 -16 21 -26 40 -49 95 -185 280
-206 280 -5 0 -9 -9 -9 -20z"/>
<path d="M4015 3730 c-4 -7 -3 -16 3 -22 14 -14 45 -2 40 15 -6 16 -34 21 -43
7z"/>
<path d="M520 3700 c-6 -11 -8 -20 -6 -20 3 0 10 9 16 20 6 11 8 20 6 20 -3 0
-10 -9 -16 -20z"/>
<path d="M3107 3713 c-13 -12 -7 -21 26 -33 17 -7 54 -26 80 -43 33 -20 51
-27 58 -20 11 11 -41 52 -108 87 -35 18 -46 19 -56 9z"/>
<path d="M576 3648 c-50 -91 -139 -278 -134 -284 3 -2 22 33 42 78 20 46 60
123 87 172 28 48 48 90 46 93 -3 2 -21 -24 -41 -59z"/>
<path d="M1333 3598 c-127 -130 -280 -346 -258 -366 4 -4 10 -2 12 5 10 27
105 179 143 227 21 28 77 90 123 139 46 48 81 87 78 87 -4 0 -47 -42 -98 -92z"/>
<path d="M4302 3678 c-19 -19 -15 -36 24 -105 43 -76 67 -82 98 -20 24 49 10
85 -43 115 -44 25 -62 27 -79 10z"/>
<path d="M485 3640 c-9 -16 -13 -30 -11 -30 3 0 12 14 21 30 9 17 13 30 11 30
-3 0 -12 -13 -21 -30z"/>
<path d="M4515 3640 c9 -16 18 -30 21 -30 2 0 -2 14 -11 30 -9 17 -18 30 -21
30 -2 0 2 -13 11 -30z"/>
<path d="M643 3644 c18 -21 16 -25 -52 -165 -39 -79 -84 -187 -100 -239 -48
-154 -84 -374 -87 -535 l-2 -140 8 133 c5 72 16 169 24 215 8 45 22 125 31
177 19 109 61 222 151 401 l63 127 -27 23 c-23 20 -24 21 -9 3z"/>
<path d="M2213 3640 c-29 -10 -79 -30 -111 -45 l-60 -27 23 -24 23 -24 63 30
c75 35 89 37 110 12 24 -28 77 -17 98 19 18 32 36 39 104 39 40 0 47 3 47 20
0 23 -12 24 -114 10 -47 -7 -73 -7 -80 0 -14 14 -43 11 -103 -10z"/>
<path d="M3944 3597 c28 -36 32 -53 16 -59 -6 -2 -1 -19 10 -41 36 -67 -4 -81
-48 -17 -15 21 -31 39 -35 40 -11 0 53 -88 67 -93 7 -3 23 1 36 8 21 11 26 11
37 -4 12 -14 12 -14 7 4 -5 17 -3 16 15 -5 26 -30 161 -295 161 -315 0 -8 4
-17 10 -20 16 -10 -17 72 -71 178 -68 133 -106 192 -126 192 -9 0 -25 13 -37
28 -16 22 -18 31 -10 45 9 13 6 25 -15 54 -14 21 -30 38 -34 38 -4 0 3 -15 17
-33z"/>
<path d="M4265 3605 c7 -35 72 -155 84 -155 20 0 18 15 -5 45 -13 18 -38 56
-55 86 -24 42 -29 47 -24 24z"/>
<path d="M845 3549 c-90 -139 -214 -411 -202 -443 4 -9 17 -16 30 -16 22 0 30
13 72 120 42 107 131 274 186 352 17 23 18 32 9 43 -25 30 -48 16 -95 -56z"/>
<path d="M4126 3613 c-11 -11 -6 -23 9 -23 8 0 15 4 15 9 0 13 -16 22 -24 14z"/>
<path d="M693 3599 c-28 -10 -29 -30 -3 -54 19 -17 21 -17 40 0 11 10 20 24
20 31 0 20 -32 33 -57 23z"/>
<path d="M4562 3555 c12 -24 23 -43 26 -41 4 5 -36 86 -43 86 -3 0 5 -20 17
-45z"/>
<path d="M1059 3513 c-77 -118 -178 -336 -160 -347 4 -3 18 24 30 59 13 36 27
63 31 60 5 -3 8 3 7 14 -1 22 33 101 44 101 4 0 11 -4 14 -10 3 -5 11 -10 17
-10 6 0 3 9 -7 20 -17 18 -16 21 15 72 58 94 64 99 89 82 11 -8 21 -11 21 -6
0 5 -11 17 -25 26 l-25 17 -51 -78z"/>
<path d="M1760 3583 c0 -5 5 -14 11 -20 7 -7 -16 -37 -83 -104 -51 -51 -79
-81 -63 -66 29 25 32 26 53 11 22 -15 30 -44 12 -44 -5 0 -7 6 -4 14 3 7 -3
16 -12 20 -38 14 -120 -95 -225 -298 -53 -102 -95 -234 -110 -342 l-12 -86
-49 4 c-27 3 -54 10 -59 15 -14 14 33 212 78 328 44 114 63 151 107 209 36 46
46 76 26 76 -29 0 -160 -269 -176 -360 -3 -19 -12 -48 -19 -65 -21 -49 -41
-183 -28 -196 14 -14 85 -23 117 -15 16 4 28 16 32 31 7 26 39 35 47 13 2 -7
7 5 11 27 15 90 59 262 76 296 19 36 19 36 -3 47 -21 11 -21 11 3 6 22 -4 29
2 58 51 29 48 32 58 20 73 -11 15 -11 16 4 4 14 -11 21 -6 54 35 21 26 73 85
116 129 48 50 78 90 78 103 0 24 -34 96 -50 106 -5 3 -10 2 -10 -2z"/>
<path d="M649 3508 c-15 -21 -15 -23 5 -40 20 -16 20 -17 2 -18 -11 0 -27 -7
-37 -15 -14 -13 -15 -20 -5 -40 6 -14 14 -25 17 -25 3 0 22 32 43 72 29 55 34
73 24 79 -20 13 -32 10 -49 -13z"/>
<path d="M1985 3519 c-4 -5 1 -19 11 -30 22 -25 41 -10 25 20 -13 23 -26 27
-36 10z"/>
<path d="M2485 3498 c-99 -11 -250 -62 -340 -115 -95 -55 -226 -179 -295 -279
-116 -168 -174 -357 -174 -564 1 -212 63 -435 132 -477 16 -10 48 -41 69 -68
68 -86 186 -188 272 -235 74 -41 81 -47 75 -70 -8 -35 -33 -60 -59 -60 -13 0
-49 18 -81 39 -178 119 -290 247 -384 436 -55 109 -72 161 -109 325 -9 39 -10
36 -4 -30 12 -154 15 -142 -44 -159 -77 -23 -80 -29 -47 -103 15 -34 28 -64
29 -66 1 -1 18 5 38 13 20 8 52 15 72 15 30 0 39 -5 53 -30 9 -17 35 -58 57
-92 22 -34 50 -80 63 -102 31 -54 81 -105 170 -173 39 -31 72 -63 72 -73 0 -9
-25 -65 -56 -124 -31 -59 -54 -109 -53 -110 20 -16 116 -76 121 -76 19 0 6 18
-17 24 -30 8 -33 38 -7 64 13 13 16 23 8 34 -12 21 15 64 51 81 21 9 36 7 87
-12 87 -33 150 -49 239 -62 90 -13 107 -6 107 47 0 28 -5 36 -26 44 -14 6 -38
10 -53 10 -15 0 -32 5 -39 12 -17 17 -15 53 3 68 9 7 13 21 10 31 -8 24 31 34
82 22 28 -6 39 -14 41 -31 2 -12 -2 -22 -9 -22 -7 0 -10 -2 -7 -5 3 -3 13 -3
22 1 20 8 22 72 4 96 -8 9 -43 21 -83 27 -38 7 -92 19 -120 28 -83 26 -224
103 -301 165 -80 63 -211 214 -245 281 -64 124 -91 286 -75 441 7 61 10 67 29
64 21 -3 22 -8 23 -138 2 -241 65 -403 213 -551 100 -99 189 -155 318 -198
278 -94 517 -55 755 121 132 97 220 217 270 367 30 92 32 104 32 256 1 141 -2
169 -22 235 -88 281 -279 474 -562 566 -74 24 -101 27 -210 27 -149 1 -214
-14 -348 -79 -77 -37 -109 -61 -184 -133 -61 -60 -88 -93 -83 -101 5 -8 4 -11
-3 -6 -27 16 -134 -189 -154 -295 -12 -65 -13 -66 -35 -56 -43 20 -48 1 -48
-191 0 -154 3 -187 23 -255 28 -98 56 -156 89 -183 26 -22 26 -22 5 -33 -19
-10 -25 -7 -52 30 -63 87 -106 298 -97 473 13 260 116 488 299 662 146 140
307 216 503 239 57 6 74 11 64 18 -2 2 -35 0 -74 -5z m116 -165 c0 -38 2 -104
5 -149 l4 -81 -74 -6 c-41 -4 -80 -8 -87 -9 -6 -2 -13 2 -16 9 -2 6 15 17 39
25 35 12 44 20 46 41 3 22 8 27 33 27 16 0 29 5 29 11 0 16 -146 5 -166 -11
-8 -7 -14 -23 -14 -36 0 -19 -16 -34 -72 -71 -142 -90 -235 -211 -273 -353
-17 -62 -19 -195 -5 -255 10 -44 0 -65 -31 -65 -11 0 -19 -7 -19 -15 0 -12 4
-13 18 -6 25 13 62 -12 62 -41 0 -27 -28 -58 -51 -58 -23 0 -53 44 -45 66 4
11 -3 9 -23 -8 -17 -13 -30 -28 -30 -34 -1 -6 13 -40 31 -75 35 -73 208 -254
268 -283 19 -9 27 -11 17 -4 -56 39 -54 33 -33 72 33 62 38 63 123 21 l77 -37
19 26 c19 26 51 34 62 16 3 -5 45 -10 92 -10 76 0 85 2 90 20 3 11 9 20 13 20
5 0 15 3 24 6 12 4 16 0 16 -15 0 -27 4 -26 59 6 149 87 237 174 293 291 l43
91 53 -6 c52 -6 52 -6 52 22 0 45 -26 65 -82 65 l-48 0 0 70 0 70 48 0 c74 0
92 8 92 41 0 38 -11 42 -72 24 -61 -18 -101 -20 -96 -4 2 6 46 22 98 35 75 20
95 22 102 12 18 -25 -4 65 -33 140 -16 41 -28 76 -26 78 8 8 67 -134 84 -201
25 -104 24 -306 -4 -405 -11 -41 -24 -83 -28 -94 -7 -16 -5 -17 12 -8 52 28
91 241 72 391 -18 151 -73 273 -180 402 -47 56 -52 59 -68 45 -10 -9 -24 -16
-31 -16 -9 0 -6 -8 8 -23 26 -27 28 -50 7 -67 -13 -11 -23 -5 -63 32 -26 25
-67 57 -89 72 -41 28 -42 28 -62 9 -21 -19 -21 -19 40 -59 70 -45 137 -122
180 -206 16 -32 33 -58 38 -58 5 0 28 7 51 15 51 18 50 18 50 4 0 -13 -94 -55
-144 -64 -40 -8 -49 7 -15 25 16 9 19 17 14 38 -17 69 -128 195 -226 257 l-46
28 25 22 c16 14 22 26 17 34 -6 10 -9 10 -15 1 -5 -9 -19 -8 -56 5 -27 9 -70
19 -96 22 l-48 6 0 -45 c0 -43 2 -46 31 -52 17 -3 44 -6 59 -6 55 0 204 -92
232 -143 6 -13 -10 -2 -41 25 -71 64 -142 98 -205 98 -101 0 -96 -9 -96 162
l0 150 38 -7 c20 -4 46 -8 57 -9 43 -6 142 -39 199 -68 313 -157 489 -477 448
-816 -18 -148 -52 -252 -108 -334 -97 -139 -267 -273 -413 -323 -330 -112
-722 22 -922 316 -77 114 -119 266 -119 434 0 89 4 117 19 145 10 19 23 35 30
34 6 -1 17 -2 25 -2 11 -2 13 -27 8 -135 -4 -104 -1 -151 12 -210 10 -42 21
-79 26 -82 13 -8 50 60 50 93 0 26 5 33 26 38 25 6 26 9 20 52 -3 25 -6 68 -6
96 0 50 -1 52 -32 61 -21 6 -34 17 -36 30 -4 20 -57 75 -73 75 -5 0 -11 11
-15 24 -7 29 23 80 42 72 8 -4 21 -9 29 -12 9 -4 15 0 15 9 0 20 96 163 123
184 l22 16 -34 34 -34 34 44 45 c116 119 309 201 477 203 l62 1 1 -67z m119
-183 c20 -6 21 -8 5 -8 -11 0 -29 3 -40 8 -25 11 1 11 35 0z m-116 -122 c3
-35 7 -76 8 -92 3 -25 9 -30 60 -46 72 -22 122 -53 150 -93 21 -30 23 -44 26
-208 l4 -177 -36 -40 c-37 -41 -103 -75 -168 -87 l-37 -7 -3 -71 c-2 -59 -6
-72 -20 -75 -16 -3 -18 5 -18 71 l0 74 -57 7 c-72 8 -130 34 -181 81 -59 52
-65 82 -60 259 3 83 2 142 -3 131 -4 -11 -8 -87 -9 -170 0 -123 -3 -146 -13
-130 -8 14 -12 72 -12 180 0 88 -4 163 -9 166 -29 21 95 158 179 198 56 27
145 40 145 22 0 -6 -5 -11 -11 -11 -8 0 -8 -4 0 -14 7 -8 11 -27 9 -43 -2 -23
-10 -29 -47 -40 -25 -7 -49 -17 -54 -22 -5 -5 17 -1 49 9 l59 18 3 67 3 67
-43 -7 c-146 -25 -263 -117 -335 -263 -26 -53 -28 -65 -28 -182 0 -120 2 -127
33 -191 54 -111 175 -207 287 -228 25 -5 45 -5 45 -1 0 4 -17 11 -37 15 -52 9
-131 46 -171 79 -65 56 -4 53 67 -3 41 -32 141 -66 141 -47 0 6 5 18 10 26 15
23 30 -5 30 -58 0 -53 -13 -59 -88 -42 -185 41 -325 191 -355 380 -37 242 107
475 335 541 35 10 82 18 105 18 l41 1 6 -62z m136 3 c82 -31 168 -104 212
-181 53 -92 71 -172 66 -289 -3 -83 -8 -106 -38 -169 -26 -57 -38 -72 -51 -69
-11 3 -16 0 -13 -8 13 -34 -165 -147 -254 -161 l-42 -7 0 62 c0 34 4 61 10 61
6 0 10 -12 10 -26 0 -24 3 -26 30 -20 17 3 45 16 63 30 18 13 49 27 70 30 32
6 37 10 37 35 0 16 7 45 15 65 21 49 11 353 -13 404 -18 41 -70 77 -154 107
l-63 23 -3 72 -3 73 33 -6 c18 -3 58 -15 88 -26z m-841 -53 c-12 -23 -27 -58
-34 -77 -8 -20 -14 -29 -14 -21 -1 17 55 140 64 140 3 0 -4 -19 -16 -42z
m1181 12 c0 -5 -4 -10 -9 -10 -6 0 -13 5 -16 10 -3 6 1 10 9 10 9 0 16 -4 16
-10z m-39 -134 c22 -38 -11 -5 -42 42 l-31 47 31 -35 c18 -19 36 -43 42 -54z
m-817 -88 c4 4 4 -11 -1 -33 -4 -22 -8 -83 -7 -135 1 -111 22 -182 65 -221
l29 -25 -24 -23 -24 -23 -28 43 c-15 24 -36 70 -45 101 -34 109 -22 350 15
319 7 -6 16 -7 20 -3z m-118 -25 c-7 -7 -26 7 -26 19 0 6 6 6 15 -2 9 -7 13
-15 11 -17z m84 -503 c-6 -10 -17 -23 -26 -28 -13 -7 -14 -13 -5 -30 34 -64
-29 -123 -81 -75 -26 23 -23 59 7 80 14 10 42 30 62 46 42 32 58 35 43 7z
m186 -528 c6 -4 16 -17 23 -30 17 -31 -9 -72 -44 -72 -28 0 -65 32 -65 55 0
36 57 67 86 47z"/>
<path d="M2385 3364 c-93 -23 -239 -98 -296 -153 -45 -43 -49 -52 -40 -70 16
-29 33 -26 83 15 23 20 67 52 95 70 29 19 53 39 53 45 0 6 8 8 19 4 12 -3 21
0 25 10 7 20 55 19 63 -1 3 -9 1 -24 -5 -34 -19 -30 3 -38 66 -24 31 8 74 14
95 14 l37 0 0 70 0 70 -67 -1 c-38 0 -95 -7 -128 -15z"/>
<path d="M2640 3307 l0 -63 68 -13 c37 -7 79 -15 93 -18 24 -4 28 -1 34 26 9
42 29 40 22 -2 -5 -32 -2 -35 36 -55 23 -12 55 -29 70 -39 27 -17 29 -17 39 0
8 15 17 18 44 12 52 -9 43 15 -23 64 -103 77 -278 151 -354 151 -29 0 -29 0
-29 -63z"/>
<path d="M2294 3246 c-3 -9 -32 -32 -64 -51 -67 -41 -92 -65 -66 -65 9 0 16
-4 16 -8 0 -9 -77 -62 -90 -62 -12 0 -98 -118 -126 -172 -20 -40 -22 -48 -9
-48 9 0 33 -9 55 -20 l39 -20 33 63 c42 79 145 181 229 227 55 30 64 40 67 66
3 29 -12 52 -62 92 -14 11 -17 10 -22 -2z m60 -59 c7 -19 7 -34 0 -45 -14 -22
-68 -27 -85 -9 -11 12 -16 8 -32 -22 -11 -20 -25 -39 -31 -43 -15 -10 -46 -10
-46 0 0 5 10 8 23 8 18 -1 23 5 25 32 2 18 10 36 17 38 8 3 23 21 35 41 17 29
25 34 52 31 25 -2 35 -9 42 -31z"/>
<path d="M2290 3170 c0 -5 5 -10 10 -10 6 0 10 5 10 10 0 6 -4 10 -10 10 -5 0
-10 -4 -10 -10z"/>
<path d="M2547 3163 c-12 -11 -8 -23 8 -23 8 0 15 7 15 15 0 16 -12 20 -23 8z"/>
<path d="M3015 3130 c-11 -17 5 -31 19 -17 14 12 12 27 -4 27 -5 0 -12 -4 -15
-10z"/>
<path d="M3040 3075 c0 -2 7 -8 15 -15 12 -10 15 -10 15 2 0 8 -7 15 -15 15
-8 0 -15 -1 -15 -2z"/>
<path d="M1881 2831 c-8 -6 -9 -11 -3 -15 6 -3 14 -1 17 5 9 14 2 20 -14 10z"/>
<path d="M1921 2807 c-22 -22 -10 -36 42 -44 47 -8 52 -11 50 -33 -3 -24 -2
-24 12 -6 27 36 18 52 -39 73 -39 14 -58 17 -65 10z"/>
<path d="M3282 2750 c0 -14 2 -19 5 -12 2 6 2 18 0 25 -3 6 -5 1 -5 -13z"/>
<path d="M1960 2725 c0 -9 5 -15 11 -13 6 2 11 8 11 13 0 5 -5 11 -11 13 -6 2
-11 -4 -11 -13z"/>
<path d="M3294 2595 c0 -66 1 -92 3 -57 2 34 2 88 0 120 -2 31 -3 3 -3 -63z"/>
<path d="M3130 2610 l0 -50 55 0 55 0 0 50 0 50 -55 0 -55 0 0 -50z m50 0 c-9
-6 -19 -5 -25 1 -6 6 -5 13 5 19 9 6 19 5 25 -1 6 -6 5 -13 -5 -19z m28 -27
c-10 -2 -28 -2 -40 0 -13 2 -5 4 17 4 22 1 32 -1 23 -4z"/>
<path d="M3281 2444 c0 -11 3 -14 6 -6 3 7 2 16 -1 19 -3 4 -6 -2 -5 -13z"/>
<path d="M3130 2421 c0 -6 13 -14 30 -17 56 -12 51 -49 -27 -186 -49 -85 -67
-98 -96 -69 -38 38 6 106 53 81 18 -10 23 -4 52 55 33 67 32 77 -8 89 -17 5
-24 -1 -39 -35 -44 -97 -80 -132 -232 -231 -35 -22 -63 -44 -63 -49 0 -5 -11
-14 -24 -19 -47 -18 -59 -16 -67 10 l-7 25 -1 -26 c-1 -22 -7 -27 -38 -33 -21
-3 -62 -6 -90 -6 -47 0 -53 -2 -59 -24 -11 -45 1 -49 115 -44 227 11 425 120
541 295 46 72 88 168 77 179 -3 3 -30 8 -61 11 -39 4 -56 2 -56 -6z"/>
<path d="M2012 2338 c6 -18 28 -21 28 -4 0 9 -7 16 -16 16 -9 0 -14 -5 -12
-12z"/>
<path d="M3242 2251 c2 -20 -9 -39 -68 -118 l-65 -88 55 58 c62 64 115 154 91
154 -8 0 -14 -3 -13 -6z"/>
<path d="M3050 2171 c0 -17 18 -21 24 -6 3 9 0 15 -9 15 -8 0 -15 -4 -15 -9z"/>
<path d="M3109 2123 l-34 -38 38 34 c20 19 37 36 37 38 0 8 -8 0 -41 -34z"/>
<path d="M2252 2033 c-8 -14 0 -21 51 -45 47 -22 62 -26 69 -16 13 22 10 27
-42 53 -58 30 -66 30 -78 8z"/>
<path d="M2460 2024 c0 -8 5 -12 10 -9 6 4 8 11 5 16 -9 14 -15 11 -15 -7z"/>
<path d="M2920 1995 c-104 -56 -272 -90 -380 -77 -47 6 -55 10 -58 30 -2 13 2
22 10 22 8 1 6 6 -6 15 -30 22 -35 18 -29 -20 5 -30 2 -36 -18 -44 -19 -7 -4
-10 64 -16 93 -8 87 -3 91 -65 1 -8 12 -17 25 -18 51 -8 254 42 288 70 10 8 9
13 -2 25 -24 23 -18 41 25 69 22 15 40 28 40 30 0 6 -1 5 -50 -21z"/>
<path d="M2240 1994 c0 -5 143 -74 155 -74 4 0 0 7 -9 15 -8 8 -20 15 -26 15
-6 0 -33 11 -60 25 -51 26 -60 29 -60 19z"/>
<path d="M2402 1968 c6 -18 28 -21 28 -4 0 9 -7 16 -16 16 -9 0 -14 -5 -12
-12z"/>
<path d="M2955 1960 c-3 -5 1 -10 9 -10 9 0 16 5 16 10 0 6 -4 10 -9 10 -6 0
-13 -4 -16 -10z"/>
<path d="M2430 2973 c-57 -28 -140 -103 -140 -125 0 -7 11 1 25 19 35 43 111
97 165 116 26 9 36 16 24 16 -11 1 -44 -11 -74 -26z"/>
<path d="M2280 2805 c1 -26 2 -28 11 -12 8 14 8 22 0 30 -8 8 -11 3 -11 -18z"/>
<path d="M2480 2817 c-66 -16 -86 -46 -94 -137 -3 -42 -2 -101 4 -131 29 -159
251 -200 375 -69 28 29 30 37 34 123 4 106 -9 140 -69 182 -65 45 -149 56
-250 32z m200 -25 c39 -19 80 -74 80 -106 0 -16 -9 -10 -46 31 -53 61 -101 80
-161 64 -36 -10 -83 -46 -83 -65 0 -5 14 3 31 20 27 25 38 29 90 29 58 0 62
-2 100 -42 35 -38 39 -47 39 -95 0 -94 -53 -148 -146 -148 -41 0 -51 5 -85 39
l-39 38 1 116 1 115 36 10 c61 16 144 14 182 -6z"/>
<path d="M2539 2671 c-16 -16 -29 -39 -29 -51 0 -12 13 -35 29 -51 16 -16 39
-29 51 -29 30 0 80 53 80 85 0 14 -11 37 -25 50 -33 33 -70 32 -106 -4z"/>
<path d="M2323 2733 c-10 -37 -10 -198 0 -246 12 -58 81 -122 153 -143 105
-30 264 0 294 57 8 14 -1 11 -40 -13 -43 -26 -63 -32 -129 -36 -96 -5 -164 14
-208 61 -54 57 -58 71 -57 215 0 72 -1 132 -3 132 -1 0 -6 -12 -10 -27z"/>
<path d="M2660 2987 c0 -30 4 -34 49 -50 63 -22 143 -98 173 -162 20 -44 23
-66 23 -186 0 -101 4 -141 14 -153 11 -13 11 -22 2 -42 -14 -31 -14 -44 0 -44
5 0 22 26 37 58 21 46 27 76 30 154 5 119 -12 181 -78 282 -53 82 -94 119
-165 152 -70 33 -85 32 -85 -9z m88 -6 c66 -34 122 -79 125 -101 2 -8 15 -35
29 -60 15 -25 32 -58 38 -75 22 -58 7 -285 -19 -285 -4 0 -6 56 -3 124 5 122
4 126 -25 188 -37 77 -98 139 -169 170 -42 18 -54 28 -54 46 0 29 9 28 78 -7z"/>
<path d="M2785 2933 c26 -24 88 -65 73 -47 -9 10 -32 28 -50 38 -18 10 -28 15
-23 9z"/>
<path d="M2795 2254 c-28 -22 -103 -54 -131 -56 -13 -1 -24 -6 -24 -11 0 -13
59 2 110 28 51 27 90 54 75 54 -5 0 -19 -7 -30 -15z"/>
<path d="M2090 2144 c0 -21 4 -25 23 -22 14 2 23 11 25 26 3 18 -1 22 -22 22
-21 0 -26 -5 -26 -26z m30 6 c0 -5 -4 -10 -10 -10 -5 0 -10 5 -10 10 0 6 5 10
10 10 6 0 10 -4 10 -10z"/>
<path d="M4400 3481 c0 -6 5 -13 10 -16 6 -3 10 1 10 9 0 9 -4 16 -10 16 -5 0
-10 -4 -10 -9z"/>
<path d="M1806 3362 c-60 -64 -116 -129 -124 -144 -15 -25 -15 -29 2 -46 33
-37 52 -33 92 17 57 70 57 71 46 71 -5 0 -27 -22 -48 -50 -40 -53 -54 -59 -74
-35 -10 12 -3 25 34 73 54 71 123 143 159 167 22 14 30 15 42 5 8 -7 12 -17 8
-24 -4 -6 1 -5 10 3 12 9 14 18 7 30 -14 23 -37 51 -41 50 -2 0 -53 -53 -113
-117z"/>
<path d="M3410 3474 c0 -6 14 -23 30 -39 17 -16 30 -24 30 -19 0 6 -13 23 -30
39 -16 16 -30 24 -30 19z"/>
<path d="M1097 3444 c-13 -13 -7 -24 14 -24 11 0 19 5 17 12 -5 14 -22 21 -31
12z"/>
<path d="M1337 3388 c-79 -126 -80 -128 -63 -134 28 -11 42 2 95 82 39 59 48
81 40 91 -20 24 -39 14 -72 -39z"/>
<path d="M4258 3423 c-21 -8 -38 -19 -38 -24 0 -5 20 -48 44 -96 39 -78 94
-234 126 -360 10 -40 13 -43 44 -43 68 0 70 32 11 214 -34 106 -132 327 -144
325 -3 0 -23 -7 -43 -16z m110 -177 c24 -59 42 -109 39 -112 -2 -2 -14 24 -27
58 -12 35 -35 87 -52 117 -17 30 -24 51 -16 49 7 -3 33 -53 56 -112z m71 -206
c0 -9 -4 -8 -9 5 -5 11 -9 27 -9 35 0 9 4 8 9 -5 5 -11 9 -27 9 -35z m8 -42
c-3 -8 -6 -5 -6 6 -1 11 2 17 5 13 3 -3 4 -12 1 -19z"/>
<path d="M3865 3393 c15 -24 30 -43 32 -43 7 0 -31 61 -46 73 -8 7 -2 -7 14
-30z"/>
<path d="M3340 3392 c0 -23 19 -42 42 -42 24 0 34 26 18 45 -18 22 -60 19 -60
-3z m50 -12 c0 -21 -24 -28 -35 -10 -8 14 3 30 21 30 8 0 14 -9 14 -20z"/>
<path d="M4472 3393 c2 -10 14 -19 26 -21 19 -3 23 1 20 15 -2 10 -14 19 -26
21 -19 3 -23 -1 -20 -15z m38 -3 c0 -5 -7 -10 -15 -10 -8 0 -15 5 -15 10 0 6
7 10 15 10 8 0 15 -4 15 -10z"/>
<path d="M1440 3374 c-7 -7 -9 -18 -5 -24 5 -8 11 -6 18 4 11 14 16 14 45 -4
25 -15 32 -26 27 -38 -6 -16 -5 -16 11 0 10 10 16 19 13 21 -2 2 -25 15 -51
29 -39 22 -49 24 -58 12z"/>
<path d="M4061 3370 c14 -31 19 -36 19 -24 0 6 -7 19 -16 30 -14 18 -14 18 -3
-6z"/>
<path d="M4404 3368 c18 -28 87 -212 110 -290 71 -249 92 -569 55 -848 -6 -41
-28 -147 -49 -235 -21 -88 -38 -169 -37 -180 2 -15 -4 -20 -25 -20 -15 -1 -30
-4 -34 -8 -4 -4 -2 -7 4 -7 19 0 14 -33 -18 -111 -16 -40 -28 -75 -25 -77 11
-11 27 17 52 93 15 47 32 85 38 85 19 0 57 -47 53 -65 -1 -10 -13 -24 -25 -32
-22 -15 -22 -14 -13 15 8 29 5 42 -10 42 -3 0 -6 -8 -6 -17 0 -10 -3 -30 -7
-45 -6 -24 -4 -28 13 -28 24 0 70 42 70 64 0 8 -11 28 -25 44 -34 40 -32 77
10 247 50 198 65 314 65 512 0 275 -37 496 -121 719 -47 125 -66 164 -79 164
-6 0 -4 -10 4 -22z"/>
<path d="M556 3334 c-7 -19 -9 -17 23 -34 19 -10 25 -10 32 1 14 23 10 36 -13
43 -33 8 -35 8 -42 -10z"/>
<path d="M3940 3258 c45 -92 47 -103 24 -116 -15 -8 -13 -19 20 -103 20 -52
39 -109 42 -127 7 -32 24 -55 24 -30 -1 7 -18 63 -39 125 -33 95 -37 115 -26
131 11 15 9 27 -14 77 -33 74 -60 125 -66 125 -2 0 14 -37 35 -82z"/>
<path d="M4523 3322 c0 -12 5 -22 9 -22 11 0 10 12 -2 30 -7 12 -9 10 -7 -8z"/>
<path d="M4709 3265 c14 -41 27 -72 29 -70 6 5 -38 134 -47 139 -4 3 4 -28 18
-69z"/>
<path d="M372 3268 c-27 -71 -62 -187 -62 -202 1 -6 20 48 44 119 44 131 55
181 18 83z"/>
<path d="M4490 3306 c0 -3 14 -40 30 -83 76 -194 113 -423 113 -688 0 -158
-13 -328 -30 -390 -3 -13 -2 -17 5 -10 32 32 53 424 33 620 -7 66 -21 163 -32
215 -21 103 -98 340 -111 340 -4 0 -8 -2 -8 -4z"/>
<path d="M536 3284 c-10 -25 -7 -33 16 -45 18 -10 24 -8 35 7 18 25 17 29 -12
42 -33 15 -32 15 -39 -4z"/>
<path d="M4100 3290 c0 -3 13 -38 30 -77 30 -75 100 -314 100 -343 0 -9 14
-27 31 -39 22 -16 28 -26 20 -34 -7 -7 -17 -5 -32 9 l-21 19 7 -65 c14 -116 9
-368 -9 -465 -20 -109 -66 -261 -112 -374 -19 -46 -33 -86 -30 -89 3 -2 18 1
33 7 25 10 32 26 66 134 61 198 69 254 73 537 4 253 4 255 27 264 12 6 24 11
26 13 5 3 -28 74 -44 93 -7 8 -22 49 -35 90 -32 108 -128 344 -130 320z"/>
<path d="M392 3185 c-43 -133 -40 -156 4 -30 19 55 32 107 31 115 -2 8 -18
-30 -35 -85z"/>
<path d="M1460 3274 c0 -5 6 -18 13 -28 13 -18 14 -18 21 0 4 10 4 15 0 11 -4
-4 -13 1 -20 11 -7 9 -14 12 -14 6z"/>
<path d="M4570 3244 c0 -23 20 -55 30 -49 9 6 -10 65 -22 65 -4 0 -8 -7 -8
-16z"/>
<path d="M1220 3208 c-31 -106 -51 -147 -68 -140 -14 5 -15 3 -5 -10 21 -25
-2 -78 -34 -78 -28 0 -27 9 14 99 29 65 31 72 18 77 -12 5 -66 -127 -68 -165
-2 -24 2 -26 56 -35 34 -5 62 -5 67 0 7 8 90 229 90 240 0 2 -7 4 -15 4 -8 0
-12 -6 -9 -14 8 -20 -66 -217 -84 -223 -30 -12 -28 16 4 102 19 49 37 101 39
115 2 14 7 35 10 48 4 12 5 22 3 22 -3 0 -11 -19 -18 -42z"/>
<path d="M507 3210 c-6 -23 11 -40 40 -40 35 0 30 36 -6 48 -25 9 -30 8 -34
-8z"/>
<path d="M1077 3205 c3 -8 9 -12 14 -9 12 7 11 11 -5 17 -10 4 -13 1 -9 -8z"/>
<path d="M4744 3160 c7 -28 53 -279 60 -325 2 -16 2 1 0 38 -4 71 -48 295 -60
306 -4 3 -4 -5 0 -19z"/>
<path d="M3671 3161 c-18 -12 -8 -49 22 -84 28 -33 37 -34 37 -4 -1 27 -29 79
-31 57 -1 -8 -4 -3 -8 12 -4 20 -10 25 -20 19z"/>
<path d="M1596 3098 c-49 -74 -107 -250 -122 -366 -7 -52 -8 -54 -36 -50 -17
3 -27 0 -25 -6 2 -6 29 -12 60 -14 l57 -3 0 45 c0 51 18 75 52 69 21 -4 25 2
46 69 12 40 22 78 22 85 0 6 -16 20 -35 32 -35 20 -40 35 -29 77 5 19 9 20 34
11 32 -12 60 3 60 32 0 43 -60 56 -84 19z m62 -16 c4 -26 -22 -40 -43 -22 -11
9 -12 17 -4 32 13 25 43 19 47 -10z"/>
<path d="M3624 3095 c8 -16 20 -37 25 -45 10 -13 11 -13 10 0 0 8 -11 29 -25
45 l-26 30 16 -30z"/>
<path d="M3927 3048 c15 -42 29 -75 32 -73 5 6 -38 127 -50 140 -6 5 3 -25 18
-67z"/>
<path d="M830 3106 c0 -3 -11 -47 -25 -98 -79 -292 -71 -700 21 -988 21 -66
22 -76 8 -91 -13 -14 -12 -20 9 -50 12 -19 52 -85 87 -148 70 -123 225 -335
286 -391 29 -27 25 -21 -14 25 -112 130 -208 271 -318 468 -42 77 -43 79 -26
105 9 14 16 29 15 32 -3 12 5 10 17 -5 10 -12 10 -18 0 -29 -18 -23 -8 -61 18
-64 33 -5 38 23 11 73 -17 32 -30 45 -46 45 -17 0 -25 10 -38 50 -43 129 -57
232 -62 455 -6 241 6 360 50 528 13 48 20 87 15 87 -4 0 -8 -2 -8 -4z m97
-1192 c8 -21 -13 -42 -28 -27 -13 13 -5 43 11 43 6 0 13 -7 17 -16z"/>
<path d="M871 3057 c-14 -36 -51 -213 -51 -242 0 -27 25 -44 40 -29 5 5 16 43
25 86 8 42 24 102 35 134 16 45 17 59 8 66 -24 15 -48 8 -57 -15z"/>
<path d="M960 3044 c-18 -47 -28 -104 -19 -105 5 -1 14 -2 20 -3 14 -1 40 92
33 117 -8 25 -23 21 -34 -9z"/>
<path d="M558 3049 c-3 -9 -9 -47 -12 -85 l-5 -69 14 75 c14 71 15 111 3 79z"/>
<path d="M352 3034 c-7 -8 -11 -18 -8 -23 3 -5 -1 -53 -8 -107 -8 -55 -17
-150 -21 -211 -5 -93 -4 -113 8 -113 11 0 15 29 20 138 6 119 14 175 43 305 7
30 -12 37 -34 11z"/>
<path d="M282 3020 c0 -14 2 -19 5 -12 2 6 2 18 0 25 -3 6 -5 1 -5 -13z"/>
<path d="M491 2958 c-19 -98 -31 -246 -30 -375 1 -109 11 -201 19 -183 1 3 4
82 5 175 2 145 23 358 41 418 3 11 0 17 -10 17 -10 0 -18 -17 -25 -52z"/>
<path d="M272 2965 c0 -16 2 -22 5 -12 2 9 2 23 0 30 -3 6 -5 -1 -5 -18z"/>
<path d="M4655 2958 c15 -65 35 -220 35 -270 0 -32 4 -58 10 -58 12 0 12 3 0
115 -14 127 -32 225 -42 231 -5 3 -6 -5 -3 -18z"/>
<path d="M3962 2950 c0 -8 4 -26 8 -40 6 -20 8 -21 8 -5 0 11 -3 29 -8 40 -5
12 -8 14 -8 5z"/>
<path d="M257 2880 c-4 -30 -6 -73 -6 -95 1 -23 5 -7 10 40 10 91 7 138 -4 55z"/>
<path d="M575 2920 c-10 -17 5 -50 24 -50 24 0 40 18 34 41 -6 20 -47 27 -58
9z m45 -14 c0 -8 -5 -18 -11 -22 -14 -8 -33 11 -25 25 10 16 36 13 36 -3z"/>
<path d="M1043 2899 c-1 -9 7 -19 18 -22 15 -4 19 -11 15 -29 -3 -13 -10 -57
-17 -98 -6 -41 -17 -78 -23 -83 -6 -4 12 -6 39 -5 49 3 50 3 47 34 -2 16 4 63
12 104 9 41 12 78 8 82 -4 4 -28 14 -53 21 -41 13 -45 12 -46 -4z"/>
<path d="M3982 2860 c0 -14 2 -19 5 -12 2 6 2 18 0 25 -3 6 -5 1 -5 -13z"/>
<path d="M537 2808 c-15 -83 -18 -255 -8 -378 10 -116 54 -367 67 -379 12 -13
9 15 -12 114 -35 165 -48 326 -40 513 6 159 4 194 -7 130z"/>
<path d="M927 2825 c-4 -8 -12 -66 -18 -128 -12 -122 -7 -258 17 -407 22 -138
22 -140 42 -140 14 0 21 -14 31 -62 35 -170 217 -508 327 -608 15 -14 2 7 -28
45 -69 87 -160 234 -209 341 -96 207 -146 496 -135 769 4 83 8 161 9 175 2 28
-27 41 -36 15z"/>
<path d="M3992 2805 c0 -16 2 -22 5 -12 2 9 2 23 0 30 -3 6 -5 -1 -5 -18z"/>
<path d="M4520 2820 c0 -5 5 -10 10 -10 6 0 10 5 10 10 0 6 -4 10 -10 10 -5 0
-10 -4 -10 -10z"/>
<path d="M4813 2720 c0 -41 2 -58 4 -37 2 20 2 54 0 75 -2 20 -4 3 -4 -38z"/>
<path d="M4180 2761 c0 -15 -6 -19 -27 -18 -23 2 -28 -2 -27 -20 0 -13 1 -98
3 -190 1 -151 3 -166 16 -143 10 18 14 62 15 162 0 137 5 173 21 162 5 -3 9
11 9 30 0 20 -2 36 -5 36 -3 0 -5 -9 -5 -19z"/>
<path d="M4517 2773 c-12 -11 -8 -23 8 -23 8 0 15 7 15 15 0 16 -12 20 -23 8z"/>
<path d="M4310 2716 c0 -8 5 -18 10 -21 6 -3 10 1 10 9 0 8 -4 18 -10 21 -5 3
-10 -1 -10 -9z"/>
<path d="M845 2520 c3 -165 7 -214 29 -317 68 -319 192 -574 394 -811 42 -49
45 -56 32 -75 -12 -21 -12 -21 6 -6 18 16 24 12 118 -76 91 -85 126 -104 126
-70 0 7 -48 59 -106 116 -203 200 -343 403 -443 643 -47 114 -124 373 -118
398 3 11 0 18 -9 18 -17 0 -15 -18 -24 195 l-8 180 3 -195z"/>
<path d="M707 2694 c-8 -8 1 -24 14 -24 5 0 9 7 9 15 0 15 -12 20 -23 9z"/>
<path d="M821 2684 c0 -11 3 -14 6 -6 3 7 2 16 -1 19 -3 4 -6 -2 -5 -13z"/>
<path d="M1576 2691 c-4 -7 -5 -15 -2 -18 9 -9 19 4 14 18 -4 11 -6 11 -12 0z"/>
<path d="M4036 2683 c-4 -4 -49 -10 -99 -13 l-92 -5 -9 -109 c-7 -100 -7 -111
10 -123 10 -7 26 -13 36 -13 15 0 18 9 18 54 0 44 -4 58 -21 69 -16 12 -20 23
-17 53 4 45 17 51 131 53 l67 1 0 -124 c0 -67 -5 -137 -11 -154 -9 -27 -66
-82 -84 -82 -4 0 -5 19 -1 43 3 23 2 49 -4 57 -7 11 -10 6 -10 -21 0 -19 -9
-69 -20 -110 -11 -43 -15 -78 -10 -83 5 -5 12 3 15 20 4 16 9 36 11 45 3 9 31
37 64 62 70 55 73 66 68 257 -2 103 -6 125 -18 128 -9 1 -19 -1 -24 -5z"/>
<path d="M3747 2664 c-15 -15 -7 -82 10 -88 24 -10 35 7 31 50 -3 37 -23 56
-41 38z"/>
<path d="M811 2569 c0 -52 4 -114 9 -139 5 -27 6 8 2 90 -2 74 -6 137 -8 139
-2 2 -4 -38 -3 -90z"/>
<path d="M1007 2613 c-4 -3 -6 -54 -5 -112 l2 -106 3 95 c4 92 10 109 40 110
6 0 14 -8 16 -17 4 -14 5 -12 6 5 1 15 7 22 22 22 19 0 20 -5 18 -79 -1 -43 1
-83 4 -88 4 -6 30 -13 58 -16 29 -4 56 -10 61 -15 5 -5 13 -51 19 -103 10
-103 27 -165 69 -249 15 -30 25 -62 23 -70 -3 -8 2 -6 10 6 15 20 14 27 -19
102 -32 75 -65 203 -79 314 l-6 47 -62 3 -62 3 -3 78 -3 77 -53 0 c-29 0 -56
-3 -59 -7z"/>
<path d="M1172 2598 c-13 -13 -17 -58 -5 -58 3 0 15 7 25 16 22 20 132 22 155
2 13 -11 12 -14 -7 -30 -22 -18 -19 -18 109 -18 l132 0 -3 48 -3 47 -195 3
c-144 2 -199 -1 -208 -10z"/>
<path d="M4482 2563 c2 -22 8 -28 28 -28 20 0 25 5 25 25 0 20 -6 26 -28 28
-26 3 -28 1 -25 -25z m43 -3 c0 -8 -8 -16 -17 -18 -13 -2 -18 3 -18 18 0 15 5
20 18 18 9 -2 17 -10 17 -18z"/>
<path d="M4750 2539 c-43 -17 -54 -63 -22 -92 40 -37 95 -8 90 46 -4 38 -34
59 -68 46z m44 -25 c19 -19 20 -25 3 -48 -19 -26 -61 -18 -65 12 -7 44 32 67
62 36z"/>
<path d="M617 2534 c-14 -14 -7 -153 13 -271 30 -178 109 -442 135 -450 6 -1
20 5 32 15 l22 17 -40 118 c-22 65 -51 171 -63 235 -21 114 -22 117 -49 120
-22 3 -28 8 -25 25 2 14 11 23 26 25 22 3 23 7 20 85 l-3 82 -30 3 c-17 2 -34
0 -38 -4z"/>
<path d="M3747 2523 c-10 -10 -8 -91 2 -97 24 -15 41 7 41 55 0 41 -3 49 -18
49 -10 0 -22 -3 -25 -7z"/>
<path d="M401 2483 c1 -21 5 -51 9 -68 6 -23 8 -15 9 38 1 39 -3 67 -9 67 -5
0 -9 -17 -9 -37z"/>
<path d="M320 2492 c0 -38 31 -251 51 -351 29 -149 107 -377 174 -511 71 -142
157 -288 162 -273 2 6 -8 28 -23 49 -38 56 -136 263 -178 377 -76 204 -126
413 -145 609 -5 54 -13 102 -16 108 -10 16 -25 11 -25 -8z"/>
<path d="M1075 2450 c14 -114 35 -237 49 -283 l14 -48 -26 -10 c-54 -20 -57
-21 -45 -26 6 -2 28 3 48 11 32 14 36 19 31 38 -26 92 -38 147 -51 247 -8 63
-17 117 -21 120 -3 3 -2 -19 1 -49z"/>
<path d="M1450 2440 c0 -12 5 -52 11 -91 l12 -69 36 6 c20 4 39 9 42 13 4 3 1
40 -5 81 l-12 75 -42 3 c-37 3 -42 1 -42 -18z"/>
<path d="M3587 2443 c-4 -3 -7 -16 -7 -28 0 -71 -69 -242 -140 -346 -36 -53
-38 -58 -22 -73 16 -14 19 -13 32 7 80 124 121 214 149 329 13 57 19 68 37 68
20 0 62 -37 82 -75 22 -39 14 36 -9 82 -20 42 -22 43 -68 43 -26 0 -51 -3 -54
-7z"/>
<path d="M4456 2348 c-4 -51 -11 -113 -16 -138 -8 -41 -7 -47 16 -63 13 -10
24 -28 24 -39 0 -17 -5 -20 -28 -15 -27 6 -29 3 -42 -46 -7 -29 -28 -97 -46
-151 -33 -97 -33 -100 -14 -113 16 -11 18 -18 9 -40 -5 -15 -17 -32 -27 -39
-15 -12 -15 -13 -1 -14 22 0 33 15 59 80 70 178 120 372 136 521 6 63 5 66
-20 82 -16 11 -26 27 -26 42 0 14 -4 25 -9 25 -4 0 -11 -42 -15 -92z"/>
<path d="M1330 2420 c-24 -15 -7 -17 35 -4 38 12 38 12 10 13 -16 0 -37 -3
-45 -9z"/>
<path d="M296 2330 c7 -119 15 -152 34 -140 13 8 13 11 1 19 -8 5 -19 47 -27
107 l-13 99 5 -85z"/>
<path d="M3491 2367 c-8 -26 -18 -47 -22 -47 -5 0 -9 -4 -9 -10 0 -5 6 -10 14
-10 14 0 41 80 34 101 -2 7 -10 -8 -17 -34z"/>
<path d="M4687 2328 c-4 -40 -9 -95 -12 -123 -4 -42 -3 -45 5 -20 11 33 26
215 18 215 -3 0 -8 -33 -11 -72z"/>
<path d="M1331 2370 c-2 -50 75 -300 93 -300 2 0 -6 26 -19 58 -21 53 -57 179
-68 242 l-4 25 -2 -25z"/>
<path d="M434 2345 c-6 -16 12 -132 27 -172 5 -13 15 -23 24 -23 19 0 20 16 0
24 -19 7 -20 36 0 36 9 0 22 -25 35 -72 28 -95 50 -157 58 -162 13 -7 53 14
47 24 -4 7 -12 7 -25 0 -10 -6 -21 -6 -24 -2 -10 16 -65 227 -76 295 -11 61
-14 67 -36 67 -14 0 -27 -7 -30 -15z"/>
<path d="M4127 2353 c-4 -3 -7 -35 -7 -69 0 -179 -107 -461 -265 -697 -252
-378 -648 -632 -1094 -701 -41 -6 -76 -17 -79 -24 -6 -18 23 -15 158 14 327
68 561 194 791 423 286 287 471 640 499 956 9 101 8 110 -3 98z"/>
<path d="M1187 2323 c-15 -15 -3 -86 39 -226 4 -14 -8 -24 -58 -48 -66 -31
-44 -30 30 2 51 22 56 7 7 -23 -49 -28 -37 -35 15 -8 30 16 40 26 37 38 -38
118 -58 195 -60 229 -1 24 -2 43 -3 43 0 0 -4 -3 -7 -7z"/>
<path d="M3867 2263 c-9 -36 -16 -68 -13 -70 2 -2 12 26 21 62 10 36 16 67 14
70 -3 2 -12 -26 -22 -62z"/>
<path d="M4747 2278 c-3 -13 -9 -45 -12 -71 -6 -41 -10 -47 -26 -42 -14 5 -19
1 -19 -14 0 -24 8 -26 32 -8 16 13 46 142 35 153 -2 3 -7 -5 -10 -18z"/>
<path d="M3730 2200 c-10 -55 -4 -106 15 -121 19 -16 19 -18 -13 -79 -20 -38
-30 -66 -24 -72 11 -11 36 25 46 67 17 70 18 86 6 100 -7 8 -16 38 -20 67 -4
29 -9 46 -10 38z"/>
<path d="M3386 2161 c-23 -43 -19 -52 5 -13 12 18 19 35 16 38 -3 3 -13 -8
-21 -25z"/>
<path d="M3817 2116 c-36 -88 -34 -98 4 -17 16 36 28 69 26 74 -1 5 -15 -21
-30 -57z"/>
<path d="M321 2163 c-1 -13 26 -150 34 -172 3 -8 7 -12 9 -10 2 2 -6 47 -19
99 -13 52 -24 90 -24 83z"/>
<path d="M3901 2138 c-72 -191 -151 -353 -172 -353 -7 0 -16 -15 -20 -32 -11
-55 -178 -257 -204 -247 -9 4 -12 0 -9 -13 4 -14 -7 -29 -40 -54 -29 -22 -45
-42 -46 -56 0 -17 -27 -37 -136 -99 -118 -67 -308 -153 -340 -154 -6 0 -19 8
-28 19 -16 17 -20 17 -79 4 -38 -9 -132 -16 -245 -18 -100 -2 -187 -7 -192
-10 -11 -7 -21 64 -17 134 l2 54 -98 24 c-105 24 -126 22 -147 -17 -9 -17 -6
-25 16 -45 26 -24 26 -24 10 -71 -21 -63 -15 -65 13 -5 18 38 21 53 12 69 -20
37 6 44 98 25 l82 -16 -2 -61 c-3 -90 7 -102 93 -116 87 -15 288 -6 300 13 4
7 9 -11 10 -40 4 -118 5 -117 -22 -124 -22 -6 -23 -7 -4 -8 34 -2 44 20 42 92
-1 36 1 70 6 74 4 4 58 8 120 8 102 0 116 2 165 28 29 15 55 27 57 27 2 0 4
-11 4 -25 0 -35 35 -69 58 -55 56 32 64 60 26 91 -13 11 -14 9 -3 -14 9 -21 9
-30 -1 -42 -27 -32 -78 -6 -67 35 3 13 1 18 -5 13 -6 -3 -8 -1 -5 5 4 5 16 8
28 5 17 -5 20 -11 15 -37 -5 -24 -4 -28 6 -18 7 7 12 27 13 45 0 25 6 35 30
47 17 8 45 26 63 38 l32 24 -12 -26 c-10 -23 -8 -29 12 -51 25 -27 68 -33 88
-13 17 17 15 73 -3 88 -8 7 -28 10 -45 8 -16 -3 -30 -1 -30 3 0 11 91 60 101
53 5 -3 9 2 9 10 0 8 -4 18 -10 21 -5 3 -10 12 -10 18 0 8 3 8 9 -1 17 -27
192 141 289 278 52 72 127 219 177 343 36 89 44 102 70 109 19 5 39 3 57 -7
15 -7 28 -9 28 -4 0 12 -52 34 -103 43 -33 6 -38 4 -46 -16z m-521 -882 c0 -8
-10 -22 -22 -31 -21 -14 -24 -14 -35 1 -9 13 -10 21 -2 31 15 18 59 17 59 -1z"/>
<path d="M4245 2085 c-3 -11 -20 -55 -36 -99 -16 -43 -28 -81 -26 -83 7 -7 78
178 74 191 -3 6 -8 2 -12 -9z"/>
<path d="M4670 2085 c0 -8 5 -15 10 -15 6 0 10 7 10 15 0 8 -4 15 -10 15 -5 0
-10 -7 -10 -15z"/>
<path d="M3225 2006 c-38 -40 -101 -95 -138 -122 -63 -46 -67 -51 -65 -84 2
-28 8 -36 26 -38 25 -4 62 23 62 45 0 7 -9 22 -19 32 -19 19 -19 20 7 37 50
32 123 98 168 151 66 77 41 64 -41 -21z m-132 -181 c9 -21 -25 -58 -46 -50
-33 13 -14 65 24 65 9 0 19 -7 22 -15z"/>
<path d="M4616 2045 c3 -8 -6 -57 -21 -109 -24 -86 -25 -97 -12 -111 11 -11
18 -12 23 -4 3 6 1 15 -6 19 -10 6 -8 25 9 87 23 85 27 133 11 133 -5 0 -7 -7
-4 -15z"/>
<path d="M507 1994 c16 -56 16 -56 -8 -76 l-24 -19 33 16 c17 8 32 18 32 22 0
18 -35 113 -41 113 -4 0 0 -25 8 -56z"/>
<path d="M4100 2039 c0 -5 5 -7 10 -4 6 3 10 8 10 11 0 2 -4 4 -10 4 -5 0 -10
-5 -10 -11z"/>
<path d="M1589 1994 c-12 -16 -12 -17 3 -11 13 5 22 -2 34 -24 23 -45 3 -59
-24 -17 -12 18 -22 28 -22 22 0 -14 72 -125 91 -141 12 -10 21 -7 44 11 l29
24 -51 73 c-53 77 -79 93 -104 63z"/>
<path d="M3305 1923 c-65 -72 -215 -190 -252 -199 -33 -9 -51 1 -75 42 -16 28
-26 35 -42 30 -12 -2 -64 -16 -116 -29 -52 -14 -117 -29 -145 -34 l-50 -8 -1
-55 c-1 -30 0 -43 3 -28 6 38 20 46 111 63 45 9 99 22 122 30 l40 14 16 -31
c13 -25 14 -33 2 -43 -30 -28 -199 -75 -269 -75 -27 0 -29 -3 -29 -36 0 -21 4
-33 10 -29 6 3 10 15 10 25 0 15 10 20 48 25 45 6 189 44 223 59 12 5 20 -4
34 -36 10 -24 33 -76 51 -117 19 -40 34 -81 34 -91 0 -23 -66 -51 -196 -85
-121 -32 -400 -49 -392 -24 3 11 36 16 134 20 120 6 224 24 284 48 39 16 19
13 -66 -10 -51 -13 -126 -23 -212 -26 -135 -6 -162 -14 -162 -49 0 -22 43 -27
189 -21 119 5 215 20 274 42 12 5 17 2 17 -11 0 -11 5 -26 11 -34 7 -11 8 -6
4 20 l-6 35 76 28 c42 16 78 27 79 25 2 -1 11 -16 19 -33 9 -16 16 -23 16 -15
1 8 -22 62 -49 119 -28 57 -50 112 -50 122 0 12 13 26 34 36 27 13 36 23 38
47 3 26 18 42 100 103 103 77 224 212 214 238 -9 23 -17 18 -81 -52z"/>
<path d="M1340 1955 c0 -4 9 -18 19 -31 14 -18 22 -21 27 -12 4 6 2 14 -4 16
-7 2 -19 10 -27 19 -8 8 -15 11 -15 8z"/>
<path d="M3551 1888 c-60 -96 -225 -268 -257 -268 -30 0 -31 -11 -2 -29 21
-13 27 -8 120 90 54 57 119 135 145 172 26 38 49 62 52 55 2 -7 8 -18 12 -24
6 -7 -2 -25 -21 -49 -16 -21 -30 -42 -30 -46 0 -20 17 -6 48 39 32 48 40 68
23 58 -5 -3 -16 12 -25 34 -9 22 -17 40 -18 40 -2 -1 -23 -33 -47 -72z"/>
<path d="M1180 1934 c-1 -35 63 -177 123 -275 37 -59 120 -169 129 -169 18 0
5 23 -52 101 -73 98 -134 201 -172 289 -15 36 -28 60 -28 54z"/>
<path d="M1468 1924 c-16 -8 -28 -23 -28 -33 0 -18 85 -148 126 -192 13 -14
24 -30 24 -37 0 -12 138 -152 150 -152 4 0 13 7 20 15 12 14 16 13 41 -11 15
-14 32 -25 37 -23 5 2 -34 42 -87 88 -74 65 -84 71 -43 29 36 -37 50 -58 42
-63 -6 -4 -12 -5 -14 -4 -1 2 -27 33 -58 69 -30 36 -61 76 -68 89 -10 19 -14
21 -22 10 -8 -11 -9 -10 -4 4 4 11 -3 31 -18 50 -44 60 -57 85 -47 91 5 4 28
-21 51 -53 23 -33 45 -59 49 -58 3 1 57 -49 119 -110 62 -62 119 -113 127
-113 38 0 15 32 -113 155 -81 78 -157 161 -182 200 -44 68 -57 74 -102 49z"/>
<path d="M630 1926 c0 -3 36 -79 79 -168 81 -167 212 -389 219 -370 2 6 -14
37 -36 69 -68 102 -122 201 -183 336 -32 73 -63 133 -69 135 -5 2 -10 1 -10
-2z"/>
<path d="M568 1875 l-27 -15 30 -73 c35 -84 112 -231 165 -314 97 -151 93
-147 130 -112 l22 20 -65 97 c-35 53 -96 161 -134 239 -68 139 -71 142 -95
133 -32 -12 -34 -12 -34 0 0 5 15 16 33 24 17 8 25 15 17 15 -8 0 -27 -6 -42
-14z m59 -72 c13 -19 12 -23 -6 -32 -17 -9 -22 -8 -31 10 -13 24 -6 53 12 47
6 -2 18 -14 25 -25z m36 -79 c14 -28 15 -39 6 -50 -14 -17 -25 -11 -44 27 -13
24 -13 32 -3 44 19 21 22 19 41 -21z m41 -83 c14 -26 14 -30 0 -35 -24 -9 -31
-7 -38 10 -8 20 2 54 14 54 5 0 16 -13 24 -29z m41 -72 c9 -28 -9 -46 -30 -29
-18 15 -20 36 -2 43 21 9 26 7 32 -14z m27 -74 c-3 -12 1 -16 12 -12 20 8 33
-13 15 -24 -8 -5 -16 -9 -19 -9 -9 0 -38 58 -32 64 11 12 27 -1 24 -19z m72
-84 c13 -24 13 -31 2 -40 -19 -16 -62 35 -45 55 17 21 27 17 43 -15z"/>
<path d="M1332 1881 c-11 -6 -9 -9 6 -13 11 -3 47 -47 81 -97 57 -84 81 -112
68 -76 -10 26 9 25 34 -1 22 -24 23 -26 6 -35 -22 -13 -22 -31 3 -79 22 -44
130 -163 192 -211 32 -26 39 -28 44 -15 4 11 -18 38 -72 88 -42 40 -100 100
-127 133 -48 58 -49 60 -30 75 20 15 20 16 -15 58 -19 24 -56 73 -81 110 -46
67 -76 85 -109 63z"/>
<path d="M3635 1803 c-32 -49 -99 -128 -148 -176 -68 -66 -87 -91 -78 -100 20
-20 132 101 251 274 28 40 50 76 50 81 0 23 -23 -1 -75 -79z"/>
<path d="M409 1817 c26 -75 73 -179 78 -173 2 2 -4 21 -15 43 -10 21 -29 67
-42 103 -13 36 -27 69 -32 75 -5 5 0 -16 11 -48z"/>
<path d="M1727 1779 c20 -34 153 -162 161 -155 2 3 -32 41 -77 85 -44 44 -81
84 -81 90 0 6 -5 11 -11 11 -5 0 -2 -14 8 -31z"/>
<path d="M3556 1755 c-9 -26 -7 -32 5 -12 6 10 9 21 6 23 -2 3 -7 -2 -11 -11z"/>
<path d="M3990 1742 c0 -15 -100 -174 -154 -247 -73 -96 -188 -221 -271 -295
-193 -171 -471 -306 -734 -356 -91 -18 -116 -33 -93 -56 23 -23 280 44 453
117 103 43 219 112 325 191 46 35 86 64 89 64 3 0 5 -6 5 -13 0 -14 -95 -89
-190 -149 -86 -55 -215 -117 -330 -159 -58 -21 -100 -38 -93 -38 18 -1 196 65
266 98 174 84 309 184 477 357 122 124 230 248 230 262 0 8 -12 -5 -75 -78
-94 -108 -274 -289 -280 -280 -3 5 35 52 86 104 50 52 125 139 166 193 78 102
87 111 98 94 14 -24 36 -8 75 52 22 34 40 70 40 79 0 25 -38 33 -61 12 -25
-23 -36 -10 -22 26 6 17 7 30 2 30 -5 0 -9 -4 -9 -8z"/>
<path d="M1617 1726 c-3 -8 -2 -18 3 -21 13 -8 24 15 12 27 -6 6 -11 4 -15 -6z"/>
<path d="M4157 1733 c-21 -35 -34 -83 -25 -89 6 -4 8 -3 5 3 -4 6 5 13 21 16
15 3 29 1 31 -5 3 -9 41 39 41 53 0 7 -46 29 -60 29 -5 0 -11 -3 -13 -7z"/>
<path d="M2095 1721 c-3 -5 -1 -12 5 -16 12 -7 30 2 30 16 0 12 -27 12 -35 0z"/>
<path d="M3646 1684 c-5 -14 -4 -15 9 -4 17 14 19 20 6 20 -5 0 -12 -7 -15
-16z"/>
<path d="M4251 1678 c-6 -16 -5 -27 5 -37 12 -13 11 -18 -3 -33 -14 -16 -14
-18 0 -18 17 0 62 84 52 100 -11 18 -45 11 -54 -12z"/>
<path d="M3765 1656 c-13 -19 -14 -29 -5 -46 12 -23 10 -28 -34 -83 -21 -26
-35 -36 -48 -31 -13 4 -16 1 -12 -9 3 -9 -27 -45 -81 -95 -50 -47 -83 -87 -79
-93 8 -13 164 138 231 224 36 46 44 63 39 83 -8 30 8 54 36 54 10 0 16 5 13
10 -11 18 -44 10 -60 -14z"/>
<path d="M2458 1633 c6 -2 18 -2 25 0 6 3 1 5 -13 5 -14 0 -19 -2 -12 -5z"/>
<path d="M3790 1615 c0 -8 2 -15 4 -15 2 0 6 7 10 15 3 8 1 15 -4 15 -6 0 -10
-7 -10 -15z"/>
<path d="M3559 1584 c-23 -25 -23 -26 -2 -13 13 7 25 19 27 26 8 19 2 16 -25
-13z"/>
<path d="M3197 1563 c-14 -13 -6 -20 18 -15 14 2 32 -1 40 -8 9 -7 19 -10 23
-6 4 4 -2 14 -12 22 -21 15 -58 19 -69 7z"/>
<path d="M2840 1539 c-35 -10 -99 -24 -142 -31 l-78 -11 1 -56 c1 -50 2 -52 8
-21 11 53 15 57 85 69 35 6 83 18 106 26 24 8 55 15 71 15 24 0 29 -5 35 -35
3 -19 4 -44 1 -55 -3 -11 -1 -18 4 -14 17 10 0 135 -19 133 -4 0 -36 -9 -72
-20z"/>
<path d="M4183 1523 c-9 -16 -22 -35 -27 -43 -9 -12 -8 -13 4 -3 17 13 54 73
46 73 -3 0 -13 -12 -23 -27z"/>
<path d="M3268 1490 c-67 -41 -89 -60 -68 -60 7 0 44 23 83 50 85 60 78 65
-15 10z"/>
<path d="M3335 1493 c-17 -13 -56 -40 -87 -60 -56 -34 -70 -55 -48 -68 23 -14
190 100 190 130 0 24 -25 23 -55 -2z"/>
<path d="M3919 1503 c-13 -16 -12 -17 4 -4 9 7 17 15 17 17 0 8 -8 3 -21 -13z"/>
<path d="M3200 1490 c0 -5 5 -10 10 -10 6 0 10 5 10 10 0 6 -4 10 -10 10 -5 0
-10 -4 -10 -10z"/>
<path d="M712 1435 c12 -24 25 -42 29 -39 8 5 -32 84 -43 84 -4 0 2 -20 14
-45z"/>
<path d="M1440 1471 c0 -7 25 -38 55 -70 30 -32 52 -61 49 -64 -4 -3 7 -9 22
-13 26 -6 92 -67 115 -104 7 -13 8 -13 8 0 0 18 -46 69 -161 180 -49 46 -88
78 -88 71z"/>
<path d="M3959 1392 c-19 -25 -44 -62 -55 -81 -24 -40 -42 -50 -55 -30 -7 12
-9 11 -9 -1 0 -8 -29 -41 -65 -73 -69 -61 -78 -77 -45 -77 20 0 215 180 270
250 27 34 27 37 11 47 -16 10 -23 5 -52 -35z"/>
<path d="M4367 1412 c-10 -10 -17 -28 -17 -39 0 -17 5 -19 37 -14 42 7 53 29
28 55 -21 20 -28 20 -48 -2z"/>
<path d="M4101 1333 c-47 -63 -51 -71 -45 -108 3 -22 16 -51 29 -65 l23 -25
-100 -90 c-55 -49 -111 -97 -124 -106 -13 -8 -21 -19 -18 -22 4 -4 26 8 48 27
33 27 44 31 58 22 15 -9 27 -1 75 45 32 31 64 54 71 52 7 -3 27 10 44 28 39
43 148 179 148 185 0 12 -13 -1 -54 -53 -25 -32 -56 -70 -68 -85 l-23 -27 -48
40 c-65 56 -65 93 -1 178 26 34 44 64 41 67 -2 3 -28 -26 -56 -63z m46 -236
c-2 -7 -14 -13 -28 -15 -13 -2 -49 -28 -80 -59 -31 -30 -59 -51 -63 -45 -3 5
27 41 66 80 60 59 75 69 91 61 10 -6 16 -16 14 -22z"/>
<path d="M1783 1354 c-28 -32 -37 -36 -69 -32 -32 4 -34 3 -18 -9 10 -7 27
-10 38 -6 36 11 52 6 137 -47 45 -29 112 -65 148 -80 59 -25 67 -32 72 -62 l5
-33 8 37 c8 39 3 58 -17 58 -19 0 -129 54 -201 100 -68 43 -84 65 -26 35 18
-9 29 -12 26 -6 -11 18 -1 14 115 -44 60 -31 107 -60 104 -65 -3 -5 -1 -11 4
-14 8 -6 28 52 19 58 -1 1 -37 17 -78 36 -41 18 -101 49 -133 67 -86 48 -96
49 -134 7z"/>
<path d="M4242 1368 c-17 -17 -15 -35 5 -42 21 -8 36 6 31 30 -4 22 -20 28
-36 12z m28 -18 c0 -5 -7 -10 -15 -10 -8 0 -15 5 -15 10 0 6 7 10 15 10 8 0
15 -4 15 -10z"/>
<path d="M770 1365 c1 -14 38 -61 43 -55 3 3 -6 19 -19 35 -13 17 -24 26 -24
20z"/>
<path d="M940 1335 c-10 -13 -6 -23 26 -62 86 -106 180 -197 197 -190 10 3 17
14 17 23 0 14 -200 234 -219 242 -5 1 -14 -4 -21 -13z"/>
<path d="M719 1323 c26 -48 223 -295 229 -288 3 2 -20 33 -51 69 -30 35 -83
103 -117 150 -59 81 -83 108 -61 69z"/>
<path d="M1262 1281 c16 -23 194 -181 242 -214 l41 -29 -31 29 c-17 15 -79 70
-137 122 -59 51 -105 96 -102 100 2 4 -2 8 -9 8 -11 0 -11 -4 -4 -16z"/>
<path d="M1900 1296 c0 -3 9 -10 20 -16 11 -6 20 -8 20 -6 0 3 -9 10 -20 16
-11 6 -20 8 -20 6z"/>
<path d="M3125 1254 c-27 -13 -42 -22 -32 -19 10 3 24 5 30 5 7 0 23 9 37 20
32 25 26 24 -35 -6z"/>
<path d="M870 1250 c-9 -17 -6 -26 15 -53 46 -56 117 -127 125 -127 16 0 40
32 33 43 -19 32 -138 157 -149 157 -7 0 -18 -9 -24 -20z"/>
<path d="M1205 1250 c3 -5 8 -10 11 -10 2 0 4 5 4 10 0 6 -5 10 -11 10 -5 0
-7 -4 -4 -10z"/>
<path d="M4320 1173 c-118 -157 -289 -318 -484 -457 -43 -31 -75 -56 -71 -56
15 0 203 141 300 224 97 84 160 151 269 286 60 73 71 90 59 89 -4 0 -37 -39
-73 -86z"/>
<path d="M2004 1236 c11 -9 24 -16 30 -16 12 0 7 5 -24 19 -24 11 -24 11 -6
-3z"/>
<path d="M1253 1213 c-5 -12 10 -32 53 -71 88 -81 102 -89 121 -69 15 14 10
22 -58 86 -75 71 -104 85 -116 54z"/>
<path d="M3040 1220 c-8 -5 -10 -10 -5 -10 6 0 17 5 25 10 8 5 11 10 5 10 -5
0 -17 -5 -25 -10z"/>
<path d="M1750 1180 c-12 -23 -3 -51 10 -30 12 20 71 4 163 -45 116 -61 271
-122 356 -140 76 -16 238 -19 281 -5 31 10 29 11 -45 16 -231 14 -434 72 -643
181 -94 49 -107 51 -122 23z"/>
<path d="M1622 1128 c-26 -26 247 -176 424 -234 148 -48 309 -76 282 -49 -3 3
-52 17 -109 29 -189 43 -345 108 -480 199 -94 64 -104 68 -117 55z"/>
<path d="M3886 1106 c-3 -13 -1 -37 5 -53 10 -27 7 -31 -61 -93 -65 -60 -86
-87 -59 -78 6 2 10 7 10 11 -1 4 28 32 64 63 l65 55 -6 57 c-8 67 -10 71 -18
38z"/>
<path d="M4289 1068 c-29 -35 -82 -91 -117 -126 -36 -34 -61 -66 -58 -70 7 -7
191 179 228 231 36 51 1 27 -53 -35z"/>
<path d="M2846 1035 c9 -71 14 -85 29 -85 8 0 15 5 15 10 0 6 -7 10 -15 10
-10 0 -15 11 -16 33 0 17 -4 41 -9 52 -7 14 -8 9 -4 -20z"/>
<path d="M3110 1050 c-9 -6 -10 -10 -3 -10 6 0 15 5 18 10 8 12 4 12 -15 0z"/>
<path d="M1242 1028 c-20 -20 -14 -45 19 -72 34 -29 49 -32 67 -14 21 21 13
46 -21 72 -38 29 -48 31 -65 14z"/>
<path d="M3060 1030 c-8 -5 -10 -10 -5 -10 6 0 17 5 25 10 8 5 11 10 5 10 -5
0 -17 -5 -25 -10z"/>
<path d="M2958 993 c7 -3 16 -2 19 1 4 3 -2 6 -13 5 -11 0 -14 -3 -6 -6z"/>
<path d="M1545 971 c16 -18 27 -22 54 -17 28 4 50 -3 120 -43 102 -57 256
-121 366 -151 87 -24 241 -52 228 -40 -4 3 -44 12 -88 19 -146 23 -378 109
-525 195 -49 29 -69 36 -92 31 -19 -5 -38 -1 -56 11 l-27 17 20 -22z"/>
<path d="M1134 916 c58 -57 196 -166 210 -166 4 0 -24 23 -61 51 -37 29 -99
79 -138 111 l-70 60 59 -56z"/>
<path d="M2575 940 c-3 -5 -1 -10 4 -10 6 0 11 5 11 10 0 6 -2 10 -4 10 -3 0
-8 -4 -11 -10z"/>
<path d="M2433 933 c9 -2 25 -2 35 0 9 3 1 5 -18 5 -19 0 -27 -2 -17 -5z"/>
<path d="M2638 933 c12 -2 30 -2 40 0 9 3 -1 5 -23 4 -22 0 -30 -2 -17 -4z"/>
<path d="M1359 904 c-13 -25 -12 -27 21 -55 19 -15 48 -35 65 -43 27 -14 32
-13 70 9 46 28 61 52 21 34 -24 -11 -31 -8 -86 34 -33 26 -64 47 -68 47 -5 0
-15 -12 -23 -26z m89 -50 c32 -24 47 -41 40 -45 -14 -9 -40 3 -91 43 -20 17
-34 34 -31 40 8 13 21 7 82 -38z"/>
<path d="M1822 918 c6 -18 28 -21 28 -4 0 9 -7 16 -16 16 -9 0 -14 -5 -12 -12z"/>
<path d="M3816 860 c-22 -17 -36 -30 -31 -30 9 0 85 50 85 56 0 10 -18 1 -54
-26z"/>
<path d="M2384 856 c-3 -9 -4 -27 0 -39 5 -23 11 -24 113 -30 59 -4 110 -4
114 0 3 5 9 23 12 41 l7 32 -74 0 c-40 0 -94 3 -119 6 -38 5 -48 4 -53 -10z"/>
<path d="M1646 842 c-11 -11 -6 -22 10 -22 9 0 41 -16 72 -35 74 -45 201 -99
301 -126 78 -21 111 -21 111 2 0 6 -7 8 -15 5 -26 -9 -201 51 -342 119 -72 35
-134 60 -137 57z"/>
<path d="M3650 835 c-7 -9 -26 -25 -43 -37 -24 -17 -31 -18 -38 -7 -5 8 -3 17
4 22 8 6 7 7 -3 4 -9 -3 -24 1 -35 9 -38 28 -74 18 -123 -36 -25 -27 -50 -50
-57 -50 -6 0 -48 -18 -93 -40 -45 -21 -100 -44 -122 -51 -22 -7 -40 -16 -40
-20 0 -7 -43 -21 -149 -49 -23 -6 -41 -14 -38 -16 7 -7 152 33 202 56 22 10
84 38 137 63 54 25 100 42 103 36 7 -11 36 -12 33 -1 -5 16 55 91 83 102 24
10 33 10 55 -4 36 -24 28 -51 -16 -52 -18 0 -35 -5 -38 -12 -2 -7 8 -9 32 -5
20 3 36 3 36 0 0 -13 -60 -37 -76 -30 -12 4 -15 3 -10 -5 4 -7 16 -12 27 -12
24 0 79 27 79 39 0 4 29 27 65 50 36 23 65 46 65 52 0 14 -26 11 -40 -6z"/>
<path d="M1617 775 c47 -27 61 -40 56 -52 -4 -11 -3 -14 5 -9 7 4 12 13 12 19
0 14 -101 77 -122 77 -7 0 15 -16 49 -35z"/>
<path d="M3714 799 c-3 -6 -41 -33 -83 -60 -42 -27 -71 -49 -65 -49 16 0 164
101 164 112 0 11 -8 10 -16 -3z"/>
<path d="M2287 794 c-14 -15 -6 -34 14 -34 14 0 19 5 17 17 -3 18 -20 27 -31
17z"/>
<path d="M2910 785 c-25 -7 -36 -13 -25 -13 11 0 38 5 60 13 52 17 24 17 -35
0z"/>
<path d="M3285 790 c-3 -5 -1 -10 4 -10 6 0 11 5 11 10 0 6 -2 10 -4 10 -3 0
-8 -4 -11 -10z"/>
<path d="M2750 754 l-75 -13 65 4 c36 3 79 9 95 14 42 13 4 11 -85 -5z"/>
<path d="M1727 737 c-6 -15 94 -67 193 -102 74 -27 220 -64 220 -57 0 4 -52
21 -115 39 -121 34 -262 94 -281 119 -10 12 -12 12 -17 1z"/>
<path d="M3072 714 c-51 -19 -134 -43 -185 -53 -51 -11 -81 -20 -67 -20 55 -1
333 79 345 100 4 5 5 9 3 8 -2 0 -45 -16 -96 -35z"/>
<path d="M1499 694 c-10 -13 -10 -17 1 -24 17 -10 30 -4 30 15 0 22 -16 26
-31 9z"/>
<path d="M3345 669 c-27 -15 -76 -36 -107 -46 -52 -16 -76 -33 -47 -33 20 0
219 92 219 101 0 13 -10 10 -65 -22z"/>
<path d="M1720 680 c0 -10 85 -52 174 -85 84 -31 206 -65 206 -57 0 4 -39 18
-88 31 -94 26 -207 70 -259 101 -18 11 -33 15 -33 10z"/>
<path d="M3420 639 c-52 -27 -120 -58 -150 -69 -127 -46 -141 -52 -137 -57 13
-12 397 154 397 172 0 9 -14 3 -110 -46z"/>
<path d="M1630 670 c0 -13 297 -146 306 -137 2 2 -29 16 -68 32 -40 15 -110
47 -155 70 -46 23 -83 39 -83 35z"/>
<path d="M2738 633 c12 -2 30 -2 40 0 9 3 -1 5 -23 4 -22 0 -30 -2 -17 -4z"/>
<path d="M3118 570 c-30 -18 -285 -79 -365 -88 -54 -7 -65 -10 -36 -11 80 -2
399 72 428 100 12 12 -5 11 -27 -1z"/>
<path d="M2160 559 c0 -9 68 -24 75 -17 2 2 -13 9 -35 15 -22 5 -40 7 -40 2z"/>
<path d="M2319 517 c4 -4 35 -7 67 -5 l59 3 -67 5 c-37 3 -63 1 -59 -3z"/>
<path d="M2503 503 c20 -2 54 -2 75 0 20 2 3 4 -38 4 -41 0 -58 -2 -37 -4z"/>
</g>
</svg>